<?xml version="1.0" encoding="UTF-8"?>
<svg width="24px" height="24px" viewBox="0 0 24 24" version="1.1" xmlns="http://www.w3.org/2000/svg" xmlns:xlink="http://www.w3.org/1999/xlink">
    <!-- Generator: Sketch 52.5 (67469) - http://www.bohemiancoding.com/sketch -->
    <title>Icon / Github</title>
    <desc>Created with Sketch.</desc>
    <g id="Icon-/-Github" stroke="none" stroke-width="1" fill="none" fill-rule="evenodd">
        <g id="Group" transform="translate(1.000000, 1.000000)" fill="#FFFFFF" fill-rule="nonzero">
            <path d="M8.00452309,17.569841 C7.77973563,17.6257057 7.68153396,17.7664493 7.7096969,17.9908915 C7.73771239,18.2154321 7.86400328,18.2904757 8.08849584,18.2154321 C8.31328329,18.1406836 8.41141124,18.0093819 8.38317457,17.8223139 C8.35530653,17.6165588 8.22901564,17.5321717 8.00452309,17.569841 Z" id="Shape"></path>
            <path d="M7.17993813,17.7043515 C6.95918421,17.7043515 6.84887973,17.8148441 6.84887973,18.0375275 C6.84887973,18.3001198 6.96621413,18.4109308 7.20059304,18.3705973 C7.42134696,18.3705973 7.53179639,18.2594679 7.53179639,18.0375275 C7.53179639,17.7752536 7.41446199,17.6636996 7.17993813,17.7043515 Z" id="Shape"></path>
            <path d="M5.96331957,17.7357297 C5.90861382,17.9355653 5.99772662,18.0713963 6.23044204,18.1443673 C6.43594854,18.2528222 6.56616265,18.198547 6.6208684,17.9808741 C6.66204169,17.78142 6.57292888,17.6365273 6.35374594,17.5451466 C6.14816746,17.4727479 6.01809731,17.5354171 5.96331957,17.7357297 Z" id="Shape"></path>
            <path d="M20.6511222,1.20130809 C19.8496149,0.400485828 18.8847563,1.59872116e-14 17.7557991,1.59872116e-14 L4.09748443,1.59872116e-14 C2.96887601,1.59872116e-14 2.00366864,0.400485828 1.20211148,1.20130809 C0.400753661,2.00227974 5.86197757e-14,2.96684204 5.86197757e-14,4.09474598 L5.86197757e-14,17.7441317 C5.86197757e-14,18.8720854 0.400753661,19.8365481 1.20211148,20.6373704 C2.00361881,21.438342 2.96887601,21.8388278 4.09748443,21.8388278 L7.28442783,21.8388278 C7.49292738,21.8388278 7.6495512,21.8316567 7.7538508,21.8177129 C7.85810057,21.8033707 7.96235034,21.7417192 8.06674961,21.632609 C8.17119871,21.523698 8.22322393,21.3648881 8.22322393,21.1564283 C8.22322393,21.1281423 8.2207323,20.8055425 8.21604804,20.1894756 C8.21121428,19.5732095 8.20887215,19.0851267 8.20887215,18.7248787 L7.88162155,18.7817993 C7.67297251,18.8196468 7.40975679,18.8363295 7.09197438,18.8315488 C6.77434148,18.8267681 6.44464909,18.7937013 6.10324604,18.7320498 C5.76164365,18.6703485 5.44401075,18.5282214 5.14994865,18.3056684 C4.85603606,18.082717 4.64738702,17.7913414 4.52405137,17.4312428 L4.3817295,17.1040117 C4.28689809,16.8862394 4.13759966,16.6444141 3.93363488,16.3792329 C3.72967011,16.1137032 3.52341303,15.9335792 3.31476399,15.8388111 L3.21514865,15.7676977 C3.14882148,15.7203386 3.08717857,15.6632188 3.03021992,15.596936 C2.97336094,15.530454 2.93070425,15.4640217 2.90224984,15.3978883 C2.87379543,15.3314062 2.89741608,15.276876 2.97336094,15.2340984 C3.0493058,15.19152 3.18669424,15.1704052 3.38597476,15.1704052 L3.67041916,15.2129835 C3.86018165,15.250831 4.09479347,15.364473 4.37475294,15.5541584 C4.65451308,15.7436945 4.88449047,15.9901013 5.06473493,16.2933292 C5.28300166,16.6820624 5.54596822,16.9780693 5.8543821,17.1818978 C6.16254681,17.3859254 6.47325299,17.4878147 6.78620163,17.4878147 C7.09915028,17.4878147 7.36944223,17.4641103 7.59717715,17.4169006 C7.8246629,17.3693921 8.03809587,17.2981293 8.23737639,17.2033612 C8.32273961,16.5683706 8.55515879,16.0799392 8.93443461,15.7387644 C8.39385071,15.6818438 7.90778366,15.5966372 7.47608396,15.482796 C7.04463343,15.3689549 6.59878128,15.1842494 6.1388265,14.9282312 C5.6786724,14.6722629 5.29695479,14.3549419 4.9934245,13.975571 C4.68994405,13.5962 4.44088078,13.0986056 4.24658353,12.4826881 C4.05218661,11.866422 3.95496323,11.1554376 3.95496323,10.3498346 C3.95496323,9.20300696 4.32975411,8.22654263 5.07903688,7.42093964 C4.72801614,6.55841607 4.76115481,5.59171241 5.17855256,4.52052985 C5.45362844,4.43517388 5.86155799,4.49921575 6.40214189,4.71250608 C6.94282545,4.9259458 7.33869552,5.10846017 7.59015075,5.25989979 C7.84160598,5.41138921 8.04307913,5.53947296 8.19486919,5.64385226 C9.07715513,5.39739561 9.98764632,5.27419218 10.9265919,5.27419218 C11.8654877,5.27419218 12.7761284,5.39739561 13.6584641,5.64385226 L14.1990979,5.30262757 C14.5691547,5.07504485 15.0053891,4.86653526 15.5081501,4.67704899 C16.0108612,4.48751292 16.394921,4.43532327 16.6606283,4.52067924 C17.0872949,5.5918618 17.1254667,6.55856547 16.7741968,7.42103924 C17.5234796,8.22674183 17.8983701,9.20315636 17.8983701,10.349984 C17.8983701,11.1557364 17.8011467,11.8691111 17.6067498,12.4898094 C17.4125024,13.110657 17.1612963,13.6084507 16.8527828,13.9828417 C16.5446181,14.3572825 16.1604088,14.6722131 15.700454,14.9283308 C15.2403996,15.1841498 14.7945973,15.3692039 14.3629474,15.4826964 C13.9313474,15.5965376 13.4453302,15.6820928 12.9046964,15.7390134 C13.3975906,16.1653948 13.6441622,16.8381831 13.6441622,17.7577767 L13.6441622,21.1559801 C13.6441622,21.3171804 13.6676832,21.4474055 13.7151238,21.5469542 C13.7628634,21.6464532 13.8386089,21.714977 13.9429085,21.7531731 C14.0476566,21.7910205 14.1396974,21.8146752 14.2205259,21.8240873 C14.3013543,21.8335989 14.4173148,21.8383796 14.5691048,21.8383796 L17.7560482,21.8383796 C18.8846567,21.8383796 19.8499139,21.4378938 20.6510724,20.6369222 C21.4525797,19.8359505 21.8533333,18.8713384 21.8533333,17.7434843 L21.8533333,4.09474598 C21.8532337,2.96684204 21.45248,2.00213034 20.6511222,1.20130809 Z" id="Shape"></path>
            <path d="M4.36713568,15.962801 C4.23518243,16.0561357 4.25401873,16.2060815 4.42384287,16.4122448 C4.61280072,16.5995048 4.76359028,16.6277612 4.87690551,16.4964232 C5.00885877,16.4030886 4.99002247,16.2531427 4.81990091,16.0465856 C4.63133961,15.8782288 4.48045091,15.8499724 4.36713568,15.962801 Z" id="Shape"></path>
            <path d="M3.85202024,15.6141173 C3.78825138,15.7992832 3.86276026,15.9578185 4.07565879,16.0893071 C4.24582098,16.2217666 4.38465812,16.1956908 4.49082769,16.0105249 C4.55459656,15.825359 4.48008767,15.6668237 4.26718915,15.5343642 C4.05429062,15.4550272 3.91590099,15.4816578 3.85202024,15.6141173 Z" id="Shape"></path>
            <path d="M4.80438283,16.4925705 C4.64663986,16.569779 4.64663986,16.709699 4.80438283,16.910946 C4.96194183,17.1127631 5.11048696,17.1668416 5.25075403,17.0736702 C5.40840501,16.9650245 5.40840501,16.8177746 5.25075403,16.6316761 C5.11085487,16.4306734 4.96194183,16.383599 4.80438283,16.4925705 Z" id="Shape"></path>
            <path d="M5.30830986,17.1542438 C5.17555488,17.2770522 5.20483224,17.4219919 5.39676154,17.5910749 C5.57343254,17.7744828 5.72090364,17.7975798 5.83886503,17.6594001 C5.95690388,17.537155 5.92739417,17.3917324 5.75041335,17.2232129 C5.57374235,17.0397245 5.42627125,17.016547 5.30830986,17.1542438 Z" id="Shape"></path>
        </g>
    </g>
</svg>