<?xml version="1.0" encoding="UTF-8"?>
<svg width="64px" height="31px" viewBox="0 0 64 31" version="1.1" xmlns="http://www.w3.org/2000/svg" xmlns:xlink="http://www.w3.org/1999/xlink">
    <!-- Generator: Sketch 52.5 (67469) - http://www.bohemiancoding.com/sketch -->
    <title>Logo / EX</title>
    <desc>Created with Sketch.</desc>
    <g id="Logo-/-EX" stroke="none" stroke-width="1" fill="none" fill-rule="evenodd">
        <g id="Group-6" transform="translate(2.000000, 1.000000)">
            <g id="Group">
                <polygon id="Fill-1" fill="#909090" points="49.5602292 25.3112 51.7746567 28.9893667 59.1946653 28.9998389 53.2722292 19.1656167"></polygon>
                <polygon id="Fill-3" fill="#FFFFFF" points="-7.81597009e-14 -1.77635684e-15 -7.81597009e-14 22.5555556 -7.81597009e-14 29 6.38623656 29 26.3432258 29 26.3432258 22.5555556 6.38623656 22.5555556 6.38623656 -1.77635684e-15"></polygon>
                <polygon id="Fill-4" fill="#FFFFFF" points="34.3010354 -1.77635684e-15 41.0991842 11.2777778 12.7339162 11.2777778 12.7339162 17.7222222 41.0991842 17.7222222 34.3010354 29 41.721044 28.9887222 46.7478104 20.6504167 50.4550207 14.5 46.7478104 8.35038889 41.7146577 -1.77635684e-15"></polygon>
                <polygon id="Fill-5" fill="#909090" points="51.7809631 -8.8817842e-15 49.5737201 3.66447222 53.2865184 9.81086111 59.1945855 -8.8817842e-15"></polygon>
            </g>
            <polygon id="Fill-2" fill="#FFFFFF" points="12.7477265 6.45491667 26.3184791 6.45491667 26.3184791 0.0104722222 12.7477265 0.0104722222"></polygon>
        </g>
    </g>
</svg>