<?xml version="1.0" encoding="UTF-8"?>
<svg width="300px" height="36px" viewBox="0 0 300 36" version="1.1" xmlns="http://www.w3.org/2000/svg" xmlns:xlink="http://www.w3.org/1999/xlink">
    <!-- Generator: Sketch 52.5 (67469) - http://www.bohemiancoding.com/sketch -->
    <title>Logo / Existing color</title>
    <desc>Created with Sketch.</desc>
    <defs>
        <polygon id="path-1" points="0.610806557 0.889421622 31.6652459 0.889421622 31.6652459 20.2032595 0.610806557 20.2032595"></polygon>
        <polygon id="path-3" points="0 33.1106703 291.114426 33.1106703 291.114426 0.000183783784 0 0.000183783784"></polygon>
    </defs>
    <g id="Logo-/-Existing-color" stroke="none" stroke-width="1" fill="none" fill-rule="evenodd">
        <g id="Group-19" transform="translate(5.000000, 1.000000)">
            <path d="M268.137377,13.3329622 C268.201521,13.1243676 268.263751,12.9148541 268.341298,12.7136108 C268.791266,11.543827 269.444197,10.5210703 270.282859,9.67474595 C271.122479,8.82842162 272.144,8.15944865 273.31583,7.68528649 C274.492446,7.21204324 275.82703,6.97312432 277.284157,6.97312432 C279.040944,6.97312432 280.520092,7.21204324 281.680433,7.68436757 C282.840774,8.15944865 283.901548,8.8660973 284.829246,9.78593514 L285.093482,10.0469081 L290.579252,4.30182703 L290.318846,4.06934054 C288.652052,2.58896216 286.687515,1.52944865 284.480761,0.922043243 C282.294111,0.32107027 279.872905,0.0159891892 277.284157,0.0159891892 C274.741364,0.0159891892 272.365154,0.403772973 270.217757,1.16923243 C268.061744,1.93928649 266.173797,3.05485405 264.60657,4.48744865 C263.034557,5.9228 261.792839,7.68252973 260.916839,9.71977297 C260.432407,10.8445297 260.093495,12.0575027 259.875213,13.3329622 L268.137377,13.3329622 Z" id="Fill-1" fill="#FFFFFF"></path>
            <g id="Group-5" transform="translate(259.449180, 12.894454)">
                <mask id="mask-2" fill="white">
                    <use xlink:href="#path-1"></use>
                </mask>
                <g id="Clip-4"></g>
                <path d="M18.3825967,0.889421622 L18.3825967,7.32185405 L24.1450492,7.32185405 L24.1450492,11.8585568 C23.5217967,12.1636378 22.7089836,12.4668811 21.7200131,12.7609351 C20.6400918,13.0834757 19.3332721,13.2470432 17.834977,13.2470432 C16.3768918,13.2470432 15.0423082,13.0072054 13.8676066,12.5339622 C12.6948197,12.0607189 11.6732984,11.3917459 10.8336787,10.5445027 C10.0610754,9.76434054 9.45314098,8.83531351 9.00987541,7.78958378 L0.610806557,7.78958378 C0.825259016,8.73331351 1.09906885,9.64396216 1.46765902,10.4994757 C2.34365902,12.5376378 3.58633443,14.2982865 5.15834754,15.7318 C6.72461639,17.1653135 8.61256393,18.2808811 10.768577,19.0500162 C12.9159738,19.8154757 15.2921836,20.2032595 17.834977,20.2032595 C20.2044852,20.2032595 22.565377,19.9661784 24.8496787,19.4993676 C27.1378098,19.0307189 29.3656262,18.2579081 31.4737705,17.2029892 L31.6652459,17.1065027 L31.6652459,0.889421622 L18.3825967,0.889421622 Z" id="Fill-3" fill="#FFFFFF" mask="url(#mask-2)"></path>
            </g>
            <mask id="mask-4" fill="white">
                <use xlink:href="#path-3"></use>
            </mask>
            <g id="Clip-7"></g>
            <polygon id="Fill-6" fill="#FFFFFF" mask="url(#mask-4)" points="80.5661508 33.0968865 88.2251672 33.0968865 88.2251672 0.0158054054 80.5661508 0.0158054054"></polygon>
            <polygon id="Fill-8" fill="#FFFFFF" mask="url(#mask-4)" points="173.43182 7.35144324 163.85805 7.35144324 163.85805 0.0175513514 190.664607 0.0175513514 190.664607 7.35144324 181.090837 7.35144324 181.090837 33.0986324 173.43182 33.0986324"></polygon>
            <polygon id="Fill-9" fill="#FFFFFF" mask="url(#mask-4)" points="200.238282 33.0968865 207.897298 33.0968865 207.897298 0.0158054054 200.238282 0.0158054054"></polygon>
            <polygon id="Fill-10" fill="#FFFFFF" mask="url(#mask-4)" points="217.471165 0.0162648649 227.899873 0.0162648649 242.358181 22.7595081 242.358181 0.0162648649 250.021984 0.0162648649 250.021984 33.0973459 239.957079 33.0973459 225.135925 9.78161622 225.130181 33.0973459 217.471165 33.0973459"></polygon>
            <polygon id="Fill-11" fill="#3D7D8F" mask="url(#mask-4)" points="63.8893128 21.8625514 59.4375095 28.8729838 62.0942308 33.0687676 70.9920931 33.0807135"></polygon>
            <polygon id="Fill-12" fill="#FFFFFF" mask="url(#mask-4)" points="15.2893115 7.36256216 31.5647213 7.36256216 31.5647213 0.0112108108 15.2893115 0.0112108108"></polygon>
            <polygon id="Fill-13" fill="#FFFFFF" mask="url(#mask-4)" points="7.65882492 9.18918919e-05 -0.00019147541 9.18918919e-05 -0.00019147541 25.7298216 -0.00019147541 33.081173 7.65882492 33.081173 31.5932511 33.081173 31.5932511 25.7298216 7.65882492 25.7298216"></polygon>
            <polygon id="Fill-14" fill="#FFFFFF" mask="url(#mask-4)" points="56.0652446 9.52487027 50.0289823 0.000275675676 41.1378216 0.000275675676 49.2898872 12.8651405 15.2714085 12.8651405 15.2714085 20.2164919 49.2898872 20.2164919 41.1378216 33.0813568 50.0366413 33.0684919 56.0652446 23.5558432 60.5113036 16.5408162"></polygon>
            <polygon id="Fill-15" fill="#3D7D8F" mask="url(#mask-4)" points="63.9066413 11.1913297 70.9921889 -0.000183783784 62.1010282 -0.000183783784 59.454838 4.1808973"></polygon>
            <polygon id="Fill-16" fill="#3D7D8F" mask="url(#mask-4)" points="107.372804 0.0296810811 107.372804 6.76811351 102.765906 6.76811351 102.765906 26.3677351 107.372804 26.3677351 107.372804 33.1107622 97.7990334 33.1107622 97.7990334 0.0296810811"></polygon>
            <polygon id="Fill-17" fill="#3D7D8F" mask="url(#mask-4)" points="154.284279 0.0296810811 154.284279 33.1107622 144.710509 33.1107622 144.710509 26.3677351 149.318365 26.3677351 149.318365 6.76811351 144.710509 6.76811351 144.710509 0.0296810811"></polygon>
            <path d="M114.318479,33.1107622 L114.318479,26.3677351 L128.526911,26.3677351 C130.363161,26.3677351 131.876774,24.9195189 131.876774,23.1551946 C131.876774,21.3899514 130.363161,19.9417351 128.526911,19.9417351 L123.55621,19.9417351 C117.82918,19.9417351 113.18303,15.4785459 113.18303,9.98524865 C113.18303,4.48827568 117.82918,0.0296810811 123.55621,0.0296810811 L138.195462,0.0296810811 L138.195462,6.76811351 L123.55621,6.76811351 C121.719961,6.76811351 120.206348,8.22092432 120.206348,9.98524865 C120.206348,11.7458973 121.719961,13.1987081 123.55621,13.1987081 L128.526911,13.1987081 C134.252026,13.1987081 138.900092,17.6573027 138.900092,23.1551946 C138.900092,28.6512486 134.252026,33.1107622 128.526911,33.1107622 L114.318479,33.1107622 Z" id="Fill-18" fill="#3D7D8F" mask="url(#mask-4)"></path>
        </g>
    </g>
</svg>