<?xml version="1.0" encoding="UTF-8"?>
<svg width="190px" height="60px" viewBox="0 0 190 60" version="1.1" xmlns="http://www.w3.org/2000/svg" xmlns:xlink="http://www.w3.org/1999/xlink">
    <!-- Generator: Sketch 52.5 (67469) - http://www.bohemiancoding.com/sketch -->
    <title>Logo / DCEN</title>
    <desc>Created with Sketch.</desc>
    <g id="Logo-/-DCEN" stroke="none" stroke-width="1" fill="none" fill-rule="evenodd">
        <g id="dcen-logo-white" transform="translate(4.000000, 1.000000)">
            <path d="M23.2884746,0 L41.2881356,0 C51.6494915,0 56.8301695,4.05672316 56.8301695,12.1701695 L56.8301695,45.6725424 C56.8301695,53.7466667 51.3971751,57.7935593 40.5311864,57.8132203 L23.2884746,57.8132203 L23.2884746,0 Z M34.9572881,8.21830508 L34.9572881,49.5949153 L40.0789831,49.5949153 C43.460678,49.5949153 45.1515254,48.2841808 45.1515254,45.6627119 L45.1515254,12.1701695 C45.1515254,9.54870056 43.460678,8.2379661 40.0789831,8.2379661 L34.9572881,8.21830508 Z" id="Shape" fill="#FFFFFF" fill-rule="nonzero"></path>
            <rect id="Rectangle" fill="#F29100" x="0" y="23.6227119" width="11.6491525" height="11.6491525"></rect>
            <rect id="Rectangle" fill="#F29100" x="11.6491525" y="35.2718644" width="11.6491525" height="11.6491525"></rect>
            <rect id="Rectangle" fill="#F29100" x="11.6491525" y="12.0522034" width="11.6491525" height="11.6491525"></rect>
            <path d="M87.7667797,46.5867797 C87.7667797,49.2016949 86.0562712,50.5189831 82.6549153,50.5189831 C79.2535593,50.5189831 77.5725424,49.2115254 77.5725424,46.5867797 L77.5725424,35.3013559 L65.8644068,35.3013559 L65.8644068,46.5867797 C65.8644068,54.6969492 71.4481356,57.9016949 82.5762712,57.9016949 C93.7044068,57.9016949 99.3667797,54.6772881 99.3667797,46.5867797 L99.3667797,38.8108475 L87.7667797,38.8108475 L87.7667797,46.5867797 Z" id="Path" fill="#F29100"></path>
            <path d="M82.6549153,0.0688135593 C71.4874576,0.0688135593 65.8644068,3.1359322 65.8644068,11.2264407 L65.8644068,23.6620339 L77.5725424,23.6620339 L77.5725424,11.2264407 C77.5725424,8.60497175 79.2502825,7.29423729 82.6057627,7.29423729 L82.6942373,7.29423729 C86.0759322,7.29423729 87.7667797,8.60497175 87.7667797,11.2264407 L87.7667797,19.0023729 L99.4454237,19.0023729 L99.4454237,11.2264407 C99.4454237,3.1359322 93.8420339,0.0688135593 82.6549153,0.0688135593 Z" id="Path" fill="#F29100"></path>
            <rect id="Rectangle" fill="#F29100" x="148.411186" y="35.3013559" width="11.6491525" height="22.5020339"></rect>
            <polygon id="Path" fill="#F29100" points="171.119661 0 171.119661 33.5318644 160.237288 0 148.411186 0 148.411186 23.6620339 160.060339 23.6620339 170.549492 57.8132203 182.788475 57.8132203 182.788475 0"></polygon>
            <polygon id="Path" fill="#F29100" points="139.671864 12.0030508 139.671864 0 138.846102 0 138.846102 0 108.558305 0 108.558305 23.6620339 120.207458 23.6620339 120.207458 35.3013559 108.558305 35.3013559 108.558305 57.8132203 138.846102 57.8132203 138.846102 57.8132203 139.671864 57.8132203 139.671864 46.0067797 120.236949 46.0067797 120.236949 35.38 139.671864 35.38 139.671864 23.5833898 120.236949 23.5833898 120.236949 12.0030508"></polygon>
        </g>
    </g>
</svg>