<?xml version="1.0" encoding="UTF-8"?>
<svg width="50px" height="24px" viewBox="0 0 50 24" version="1.1" xmlns="http://www.w3.org/2000/svg" xmlns:xlink="http://www.w3.org/1999/xlink">
    <!-- Generator: Sketch 52.5 (67469) - http://www.bohemiancoding.com/sketch -->
    <title>Logo / EX color</title>
    <desc>Created with Sketch.</desc>
    <g id="Logo-/-EX-color" stroke="none" stroke-width="1" fill="none" fill-rule="evenodd">
        <g id="Group-6" transform="translate(2.000000, 1.000000)">
            <polygon id="Fill-1" fill="#3D7D8F" points="37.9401 19.2016 39.6353222 21.9919333 45.3156 21.9998778 40.7817667 14.5394333"></polygon>
            <polygon id="Fill-2" fill="#FFFFFF" points="9.75883333 4.89683333 20.1477222 4.89683333 20.1477222 0.00794444444 9.75883333 0.00794444444"></polygon>
            <polygon id="Fill-3" fill="#FFFFFF" points="0 0 0 17.1111111 0 22 4.88888889 22 20.1666667 22 20.1666667 17.1111111 4.88888889 17.1111111 4.88888889 0"></polygon>
            <polygon id="Fill-4" fill="#FFFFFF" points="26.25865 0 31.4628722 8.55555556 9.74826111 8.55555556 9.74826111 13.4444444 31.4628722 13.4444444 26.25865 22 31.9389278 21.9914444 35.7870944 15.6658333 38.6250944 11 35.7870944 6.33477778 31.9340389 0"></polygon>
            <polygon id="Fill-5" fill="#3D7D8F" points="39.64015 0 37.9504278 2.77994444 40.7927056 7.44272222 45.3155389 0"></polygon>
        </g>
    </g>
</svg>