<?xml version="1.0" encoding="UTF-8"?>
<svg width="1011px" height="120px" viewBox="0 0 1011 120" version="1.1" xmlns="http://www.w3.org/2000/svg" xmlns:xlink="http://www.w3.org/1999/xlink">
    <!-- Generator: Sketch 52.5 (67469) - http://www.bohemiancoding.com/sketch -->
    <title>Group 19 Copy</title>
    <desc>Created with Sketch.</desc>
    <defs>
        <polygon id="path-1" points="0 120 1011 120 1011 0 0 0"></polygon>
    </defs>
    <g id="Welcome" stroke="none" stroke-width="1" fill="none" fill-rule="evenodd" opacity="0.02">
        <g id="Desktop-HD" transform="translate(-252.000000, -292.000000)">
            <g id="Group-19-Copy" transform="translate(252.000000, 292.000000)">
                <path d="M930.792679,48 C931.016214,47.2481369 931.233077,46.4929616 931.503321,45.7675959 C933.071404,41.5512007 935.346793,37.864753 938.269433,34.8142423 C941.19541,31.7637317 944.755293,29.3524703 948.838982,27.6433895 C952.939353,25.9376208 957.590222,25.076456 962.668143,25.076456 C968.79034,25.076456 973.944997,25.9376208 977.98865,27.6400773 C982.032303,29.3524703 985.728976,31.8995308 988.961897,35.2150152 L989.882729,36.1556721 L1009,15.4479713 L1008.09251,14.6099917 C1002.28393,9.27408225 995.437747,5.45514767 987.747467,3.26580182 C980.127249,1.09964118 971.689626,0 962.668143,0 C953.806804,0 945.525989,1.39773668 938.042562,4.15677615 C930.529107,6.93237648 923.94983,10.9533536 918.488229,16.1170301 C913.009947,21.2906431 908.682704,27.6334529 905.629946,34.9765388 C903.941754,39.0306376 902.760687,43.4027049 902,48 L930.792679,48 Z" id="Fill-1" fill="#56A5C4"></path>
                <path d="M964.815088,50.2116682 L964.815088,73.4389409 L984.819412,73.4389409 L984.819412,89.8208045 C982.655794,90.9224409 979.834118,92.0174409 976.400912,93.0792591 C972.651971,94.2439409 968.115353,94.8345773 962.914029,94.8345773 C957.852294,94.8345773 953.219294,93.9685318 949.141324,92.2596682 C945.07,90.5508045 941.523794,88.1351682 938.609059,85.0758045 C935.926971,82.2586682 933.816529,78.9039864 932.277735,75.1278955 L903.120412,75.1278955 C903.864882,78.5356682 904.815412,81.8239864 906.094971,84.9132136 C909.136,92.2729409 913.449941,98.6305773 918.907176,103.806941 C924.344471,108.983305 930.898471,113.011577 938.383059,115.788895 C945.837735,118.552941 954.086735,119.953214 962.914029,119.953214 C971.139765,119.953214 979.335588,119.097123 987.265529,117.411486 C995.208765,115.719214 1002.94262,112.928623 1010.26103,109.11935 L1010.92574,108.770941 L1010.92574,50.2116682 L964.815088,50.2116682 Z" id="Fill-3" fill="#56A5C4"></path>
                <mask id="mask-2" fill="white">
                    <use xlink:href="#path-1"></use>
                </mask>
                <g id="Clip-7"></g>
                <polygon id="Fill-6" fill="#56A5C4" mask="url(#mask-2)" points="280 120 307 120 307 0 280 0"></polygon>
                <polygon id="Fill-8" fill="#56A5C4" mask="url(#mask-2)" points="602.214286 26.6033333 569 26.6033333 569 0 662 0 662 26.6033333 628.785714 26.6033333 628.785714 120 602.214286 120"></polygon>
                <polygon id="Fill-9" fill="#56A5C4" mask="url(#mask-2)" points="695 120 722 120 722 0 695 0"></polygon>
                <polygon id="Fill-10" fill="#56A5C4" mask="url(#mask-2)" points="755 0 791.203206 0 841.395147 82.5 841.395147 0 868 0 868 120 833.059735 120 781.608176 35.4233333 781.588235 120 755 120"></polygon>
                <polygon id="Fill-11" fill="#56A5C4" mask="url(#mask-2)" points="221.411385 79 206 104.621642 215.197117 119.95634 246 120"></polygon>
                <polygon id="Fill-12" fill="#56A5C4" mask="url(#mask-2)" points="53 27 110 27 110 0 53 0"></polygon>
                <polygon id="Fill-13" fill="#56A5C4" mask="url(#mask-2)" points="26.6666667 0 0 0 0 93.3333333 0 120 26.6666667 120 110 120 110 93.3333333 26.6666667 93.3333333"></polygon>
                <polygon id="Fill-14" fill="#56A5C4" mask="url(#mask-2)" points="194.570449 34.55 173.622275 0 142.766496 0 171.057328 46.6666667 53 46.6666667 53 73.3333333 171.057328 73.3333333 142.766496 120 173.648855 119.953333 194.570449 85.4466667 210 60"></polygon>
                <polygon id="Fill-15" fill="#56A5C4" mask="url(#mask-2)" points="221.434404 40 246 0 215.174342 0 206 14.9437556"></polygon>
                <polygon id="Fill-16" fill="#56A5C4" mask="url(#mask-2)" points="373 0 373 24.4433333 357.1204 24.4433333 357.1204 95.54 373 95.54 373 120 340 120 340 0"></polygon>
                <polygon id="Fill-17" fill="#56A5C4" mask="url(#mask-2)" points="536 6 536 126 503 126 503 101.54 518.8829 101.54 518.8829 30.4433333 503 30.4433333 503 6"></polygon>
                <path d="M396.929491,124 L396.929491,99.54 L446.101147,99.54 C452.455923,99.54 457.69414,94.2866667 457.69414,87.8866667 C457.69414,81.4833333 452.455923,76.23 446.101147,76.23 L428.898853,76.23 C409.079108,76.23 393,60.04 393,40.1133333 C393,20.1733333 409.079108,4 428.898853,4 L479.561462,4 L479.561462,28.4433333 L428.898853,28.4433333 C422.544077,28.4433333 417.30586,33.7133333 417.30586,40.1133333 C417.30586,46.5 422.544077,51.77 428.898853,51.77 L446.101147,51.77 C465.914266,51.77 482,67.9433333 482,87.8866667 C482,107.823333 465.914266,124 446.101147,124 L396.929491,124 Z" id="Fill-18" fill="#56A5C4" mask="url(#mask-2)"></path>
            </g>
        </g>
    </g>
</svg>