<?xml version="1.0" encoding="UTF-8"?>
<svg width="196px" height="56px" viewBox="0 0 196 56" version="1.1" xmlns="http://www.w3.org/2000/svg" xmlns:xlink="http://www.w3.org/1999/xlink">
    <!-- Generator: Sketch 52.5 (67469) - http://www.bohemiancoding.com/sketch -->
    <title>Logo / Nextzy</title>
    <desc>Created with Sketch.</desc>
    <defs>
        <polygon id="path-1" points="0 0.0966214286 188.421332 0.0966214286 188.421332 38.1859071 0 38.1859071"></polygon>
        <polygon id="path-3" points="0.0962357143 0.578185714 7.03909286 0.578185714 7.03909286 7.71428571 0.0962357143 7.71428571"></polygon>
        <polygon id="path-5" points="0.578378571 0.578185714 7.52123571 0.578185714 7.52123571 7.71428571 0.578378571 7.71428571"></polygon>
        <polygon id="path-7" points="0 53.0357143 188.421429 53.0357143 188.421429 0.0964285714 0 0.0964285714"></polygon>
    </defs>
    <g id="Logo-/-Nextzy" stroke="none" stroke-width="1" fill="none" fill-rule="evenodd">
        <g id="Group-30" transform="translate(4.000000, 1.000000)">
            <polygon id="Fill-1" fill="#63BC46" points="60.653475 20.05695 52.553475 10.2212357 52.553475 16.4890929 38.0891893 16.4890929 38.0891893 23.5283786 52.553475 23.5283786 52.553475 29.7972"></polygon>
            <g id="Group-29" transform="translate(0.000000, 0.867857)">
                <g id="Group-4">
                    <mask id="mask-2" fill="white">
                        <use xlink:href="#path-1"></use>
                    </mask>
                    <g id="Clip-3"></g>
                    <path d="M55.8320464,31.1466214 L38.0891893,31.1466214 L38.0891893,22.0823357 L38.0891893,15.04305 L38.0891893,7.13590714 L55.8320464,7.13590714 L65.6677607,19.09305 L55.8320464,31.1466214 Z M177.042761,0.0966214286 C173.860618,4.14662143 170.582046,8.00376429 167.399904,12.0537643 L157.853475,0.0966214286 L151.489189,0.0966214286 L146.378475,0.0966214286 L121.403475,0.0966214286 L118.414189,0.0966214286 L93.053475,0.0966214286 L86.3999036,0.0966214286 L81.3856179,0.0966214286 C78.1070464,4.14662143 74.7320464,8.00376429 71.453475,12.0537643 L61.7141893,0.0966214286 L55.928475,0.0966214286 L50.0463321,0.0966214286 L37.703475,0.0966214286 L28.253475,0.0966214286 L27.8677607,0.0966214286 L27.8677607,24.9751929 C25.9391893,21.3109071 23.8177607,17.4537643 21.503475,14.0787643 L12.053475,0.0966214286 L-9.64285714e-05,0.0966214286 L-9.64285714e-05,38.1859071 L9.44990357,38.1859071 L9.44990357,26.7109071 C9.44990357,20.5394786 9.353475,15.1394786 8.96776071,10.0287643 L9.25704643,10.0287643 C11.378475,14.4644786 14.4641893,19.3823357 17.1641893,23.4323357 L26.903475,38.1859071 L27.8677607,38.1859071 L37.703475,38.1859071 L50.0463321,38.1859071 L56.8927607,38.1859071 L61.7141893,38.1859071 L71.5499036,26.2287643 L81.3856179,38.1859071 L93.053475,38.1859071 L77.3356179,19.1894786 L87.0749036,7.32876429 L98.6463321,7.32876429 L98.6463321,38.1859071 L108.964189,38.1859071 L108.964189,7.32876429 L118.414189,7.32876429 L138.182046,7.32876429 L116.485618,33.4599429 L116.485618,38.1859071 L156.310618,38.1859071 L156.310618,31.0492286 L130.274904,31.0492286 L130.274904,30.8573357 L151.007046,5.78590714 L162.192761,19.6716214 L162.192761,38.1859071 L172.703475,38.1859071 L172.703475,19.6716214 L188.421332,0.0966214286 L177.042761,0.0966214286 Z" id="Fill-2" fill="#FFFFFF" mask="url(#mask-2)"></path>
                </g>
                <polygon id="Fill-5" fill="#FFFFFF" points="29.6037643 45.9 29.6037643 46.6714286 27.3859071 46.6714286 27.3859071 52.9392857 26.51805 52.9392857 26.51805 46.6714286 24.3001929 46.6714286 24.3001929 45.9"></polygon>
                <polygon id="Fill-7" fill="#FFFFFF" points="40.1143821 45.9 40.1143821 46.6714286 36.4500964 46.6714286 36.4500964 48.9857143 39.921525 48.9857143 39.921525 49.7571429 36.4500964 49.7571429 36.4500964 52.1678571 40.2108107 52.1678571 40.2108107 52.9392857 35.5822393 52.9392857 35.5822393 45.9"></polygon>
                <path d="M51.7823357,52.65 C51.2037643,52.8428571 50.5287643,52.9392857 49.8537643,52.9392857 C47.44305,52.9392857 46.1894786,51.6857143 46.1894786,49.275 C46.1894786,46.9607143 47.44305,45.8035714 49.8537643,45.8035714 C50.5287643,45.8035714 51.2037643,45.9 51.7823357,46.0928571 L51.7823357,46.8642857 C51.2037643,46.6714286 50.5287643,46.4785714 49.9501929,46.4785714 C48.0216214,46.4785714 47.0573357,47.3464286 47.0573357,49.1785714 C47.0573357,51.1071429 48.0216214,52.0714286 49.9501929,52.0714286 C50.6251929,52.0714286 51.2037643,51.975 51.7823357,51.6857143 L51.7823357,52.65 Z" id="Fill-9" fill="#FFFFFF"></path>
                <polygon id="Fill-11" fill="#FFFFFF" points="58.1462357 52.9390929 58.1462357 45.8998071 59.0140929 45.8998071 59.0140929 48.9855214 63.1605214 48.9855214 63.1605214 45.8998071 64.1248071 45.8998071 64.1248071 52.9390929 63.25695 52.9390929 63.25695 49.75695 59.1105214 49.75695 59.1105214 52.9390929"></polygon>
                <polygon id="Fill-13" fill="#FFFFFF" points="70.68195 52.9390929 70.68195 45.8998071 71.5498071 45.8998071 75.7926643 51.5900571 75.7926643 45.8998071 76.6605214 45.8998071 76.6605214 52.9390929 75.7926643 52.9390929 71.5498071 47.2507714 71.5498071 52.9390929"></polygon>
                <g id="Group-17" transform="translate(82.928571, 45.321429)">
                    <mask id="mask-4" fill="white">
                        <use xlink:href="#path-3"></use>
                    </mask>
                    <g id="Clip-16"></g>
                    <path d="M3.66409286,6.94247143 C5.30337857,6.94247143 6.17123571,5.97818571 6.17123571,4.14700714 C6.17123571,2.3139 5.30337857,1.34961429 3.66409286,1.34961429 C1.92837857,1.34961429 1.06052143,2.3139 1.06052143,4.14700714 C1.06052143,5.97818571 1.92837857,6.94247143 3.66409286,6.94247143 M0.0962357143,4.14700714 C0.0962357143,1.73629286 1.25337857,0.578185714 3.56766429,0.578185714 C5.88195,0.578185714 7.03909286,1.73629286 7.03909286,4.14700714 C7.03909286,6.46032857 5.88195,7.71486429 3.56766429,7.71486429 C1.34980714,7.71486429 0.0962357143,6.46032857 0.0962357143,4.14700714" id="Fill-15" fill="#FFFFFF" mask="url(#mask-4)"></path>
                </g>
                <polygon id="Fill-18" fill="#FFFFFF" points="97.2968143 45.9 97.2968143 52.1678571 100.9611 52.1678571 100.9611 52.9392857 96.4289571 52.9392857 96.4289571 45.9"></polygon>
                <g id="Group-22" transform="translate(106.071429, 45.321429)">
                    <mask id="mask-6" fill="white">
                        <use xlink:href="#path-5"></use>
                    </mask>
                    <g id="Clip-21"></g>
                    <path d="M4.14623571,6.94247143 C5.78552143,6.94247143 6.65434286,5.97818571 6.65434286,4.14700714 C6.65434286,2.3139 5.78552143,1.34961429 4.14623571,1.34961429 C2.41052143,1.34961429 1.54266429,2.3139 1.54266429,4.14700714 C1.54266429,5.97818571 2.41052143,6.94247143 4.14623571,6.94247143 M0.578378571,4.14700714 C0.578378571,1.73629286 1.73552143,0.578185714 4.04980714,0.578185714 C6.36409286,0.578185714 7.52123571,1.73629286 7.52123571,4.14700714 C7.52123571,6.46032857 6.36409286,7.71486429 4.04980714,7.71486429 C1.83291429,7.71486429 0.578378571,6.46032857 0.578378571,4.14700714" id="Fill-20" fill="#FFFFFF" mask="url(#mask-6)"></path>
                </g>
                <path d="M125.2611,52.65 C124.681564,52.8428571 124.103957,52.9392857 123.428957,52.9392857 C120.921814,52.9392857 119.667279,51.6857143 119.667279,49.275 C119.667279,46.9607143 120.921814,45.8035714 123.332529,45.8035714 C124.006564,45.8035714 124.681564,45.9 125.2611,46.0928571 L125.2611,46.8642857 C124.681564,46.6714286 124.006564,46.4785714 123.428957,46.4785714 C121.500386,46.4785714 120.5361,47.3464286 120.5361,49.1785714 C120.5361,51.1071429 121.500386,52.0714286 123.332529,52.0714286 C123.621814,52.0714286 124.006564,52.0714286 124.296814,51.975 L124.296814,49.7571429 L125.163707,49.7571429 L125.163707,52.65 L125.2611,52.65 Z" id="Fill-23" fill="#FFFFFF"></path>
                <mask id="mask-8" fill="white">
                    <use xlink:href="#path-7"></use>
                </mask>
                <g id="Clip-26"></g>
                <polygon id="Fill-25" fill="#FFFFFF" mask="url(#mask-8)" points="131.818821 52.9392857 132.685714 52.9392857 132.685714 45.9 131.818821 45.9"></polygon>
                <polygon id="Fill-27" fill="#FFFFFF" mask="url(#mask-8)" points="144.064671 45.9 144.064671 46.6714286 140.399421 46.6714286 140.399421 48.9857143 143.871814 48.9857143 143.871814 49.7571429 140.399421 49.7571429 140.399421 52.1678571 144.1611 52.1678571 144.1611 52.9392857 139.532529 52.9392857 139.532529 45.9"></polygon>
                <path d="M150.235521,52.65 L150.235521,51.7821429 C151.00695,52.0714286 151.779343,52.1678571 152.646236,52.1678571 C153.899807,52.1678571 154.478379,51.6857143 154.478379,50.8178571 C154.478379,50.0464286 153.996236,49.6607143 153.128379,49.6607143 L152.261486,49.6607143 C150.815057,49.6607143 150.042664,48.9857143 150.042664,47.7321429 C150.042664,46.3821429 151.00695,45.7071429 152.839093,45.7071429 C153.610521,45.7071429 154.38195,45.8035714 155.154343,45.9964286 L155.154343,46.8642857 C154.478379,46.575 153.707914,46.4785714 152.839093,46.4785714 C151.585521,46.4785714 150.910521,46.8642857 150.910521,47.7321429 C150.910521,48.5035714 151.2972,48.8892857 152.164093,48.8892857 L153.03195,48.8892857 C154.478379,48.8892857 155.249807,49.5642857 155.249807,50.8178571 C155.249807,52.1678571 154.38195,52.8428571 152.549807,52.8428571 C151.779343,53.0357143 151.00695,52.9392857 150.235521,52.65" id="Fill-28" fill="#FFFFFF" mask="url(#mask-8)"></path>
            </g>
        </g>
    </g>
</svg>