<?xml version="1.0" encoding="UTF-8"?>
<svg width="24px" height="24px" viewBox="0 0 24 24" version="1.1" xmlns="http://www.w3.org/2000/svg" xmlns:xlink="http://www.w3.org/1999/xlink">
    <!-- Generator: Sketch 52.5 (67469) - http://www.bohemiancoding.com/sketch -->
    <title>Icon / Colon Down</title>
    <desc>Created with Sketch.</desc>
    <g id="Icon-/-Colon-Down" stroke="none" stroke-width="1" fill="none" fill-rule="evenodd">
        <path d="M22,6.38866913 C19.3835653,7.71571418 18.0753676,9.27496871 18.0753676,11.0664795 C19.1905693,11.199184 20.1127415,11.6691721 20.8419118,12.4764578 C21.5710821,13.2837436 21.9356618,14.2181904 21.9356618,15.2798265 C21.9356618,16.4078148 21.581805,17.3588494 20.8740809,18.132959 C20.1663568,18.9070686 19.2763534,19.2941176 18.2040441,19.2941176 C17.0030577,19.2941176 15.9629333,18.7909539 15.0836397,17.7846115 C14.2043461,16.778269 13.7647059,15.5563 13.7647059,14.1186679 C13.7647059,9.80577147 16.1023051,6.43291591 20.7775735,4 L22,6.38866913 Z M10.2352941,6.38866913 C7.59741328,7.71571418 6.27849265,9.27496871 6.27849265,11.0664795 C7.41514049,11.199184 8.34803557,11.6691721 9.07720588,12.4764578 C9.80637619,13.2837436 10.1709559,14.2181904 10.1709559,15.2798265 C10.1709559,16.4078148 9.81173766,17.3588494 9.09329044,18.132959 C8.37484322,18.9070686 7.4794784,19.2941176 6.40716912,19.2941176 C5.20618272,19.2941176 4.17141978,18.7909539 3.30284926,17.7846115 C2.43427875,16.778269 2,15.5563 2,14.1186679 C2,9.80577147 4.32687624,6.43291591 8.98069853,4 L10.2352941,6.38866913 Z" id="“-copy" fill="#FFFFFF" transform="translate(12.000000, 11.647059) scale(-1, -1) translate(-12.000000, -11.647059) "></path>
    </g>
</svg>