<?xml version="1.0" encoding="UTF-8"?>
<svg width="24px" height="24px" viewBox="0 0 24 24" version="1.1" xmlns="http://www.w3.org/2000/svg" xmlns:xlink="http://www.w3.org/1999/xlink">
    <!-- Generator: Sketch 52.5 (67469) - http://www.bohemiancoding.com/sketch -->
    <title>Icon / Facebook</title>
    <desc>Created with Sketch.</desc>
    <g id="Icon-/-Facebook" stroke="none" stroke-width="1" fill="none" fill-rule="evenodd">
        <path d="M20.421875,1 L3.578125,1 C2.15654688,1 1,2.1557792 1,3.57641373 L1,20.4089834 C1,21.829618 2.15654688,22.9853972 3.578125,22.9853972 L20.421875,22.9853972 C21.8434531,22.9853972 23,21.829618 23,20.4089834 L23,3.57641373 C23,2.1557792 21.8434531,1 20.421875,1 Z M21.28125,20.4089834 C21.28125,20.8825283 20.8957344,21.267788 20.421875,21.267788 L15.5234375,21.267788 L15.5234375,14.2685307 L18.1784766,14.2685307 L18.6171875,11.6062365 L15.5234375,11.6062365 L15.5234375,9.75980668 C15.5234375,9.03089629 16.0831055,8.47159981 16.8125,8.47159981 L18.5742187,8.47159981 L18.5742187,5.80930563 L16.8125,5.80930563 C14.6244023,5.80930563 12.8603203,7.58059007 12.8603203,9.76727828 L12.8603203,11.6062365 L10.28125,11.6062365 L10.28125,14.2685307 L12.8603203,14.2685307 L12.8603203,21.267788 L3.578125,21.267788 C3.10426563,21.267788 2.71875,20.8825283 2.71875,20.4089834 L2.71875,3.57641373 C2.71875,3.10286889 3.10426563,2.71760915 3.578125,2.71760915 L20.421875,2.71760915 C20.8957344,2.71760915 21.28125,3.10286889 21.28125,3.57641373 L21.28125,20.4089834 Z" id="Shape" fill="#FFFFFF" fill-rule="nonzero"></path>
    </g>
</svg>