<?xml version="1.0" encoding="UTF-8"?>
<svg width="24px" height="24px" viewBox="0 0 24 24" version="1.1" xmlns="http://www.w3.org/2000/svg" xmlns:xlink="http://www.w3.org/1999/xlink">
    <!-- Generator: Sketch 52.5 (67469) - http://www.bohemiancoding.com/sketch -->
    <title>Icon / Linkin</title>
    <desc>Created with Sketch.</desc>
    <g id="Icon-/-Linkin" stroke="none" stroke-width="1" fill="none" fill-rule="evenodd">
        <g id="Group" transform="translate(1.000000, 1.000000)" fill-rule="nonzero">
            <polygon id="Rectangle-path" fill="#FFFFFF" points="4.95114583 8.10425252 7.76817708 8.10425252 7.76817708 16.5923907 4.95114583 16.5923907"></polygon>
            <path d="M16.9960643,8.90294527 C16.4043366,8.25677942 15.6217048,7.93363668 14.6486473,7.93363668 C14.2901304,7.93363668 13.9642332,7.97775326 13.671105,8.06604624 C13.3780666,8.1542794 13.1305641,8.27807502 12.9284779,8.4374929 C12.7265113,8.59691079 12.5656556,8.74490323 12.4462396,8.88147022 C12.3326839,9.01118792 12.2216396,9.16229095 12.1132863,9.33322401 L12.1132863,8.12990312 L9.30473958,8.12990312 L9.31335045,8.53984337 C9.31912092,8.81318672 9.32196131,9.65567884 9.32196131,11.0674394 C9.32196131,12.4793195 9.31628053,14.3209101 9.30485918,16.5923907 L12.1132863,16.5923907 L12.1132863,11.8700621 C12.1132863,11.5797899 12.1444109,11.349277 12.2071387,11.178344 C12.326734,10.8878624 12.5072333,10.6446679 12.7492344,10.4483416 C12.9912056,10.2517761 13.2913002,10.1535831 13.6499367,10.1535831 C14.1392011,10.1535831 14.4992728,10.3229309 14.7297927,10.6616565 C14.960223,11.0003522 15.0754531,11.4686161 15.0754531,12.0663883 L15.0754531,16.5921215 L17.8838802,16.5921215 L17.8838802,11.742109 C17.8836709,10.4952398 17.5879715,9.54890176 16.9960643,8.90294527 Z" id="Shape" fill="#FFFFFF"></path>
            <path d="M6.38955747,4.09478022 C5.910903,4.09478022 5.5230644,4.23400888 5.22595076,4.51219492 C4.92886743,4.79044124 4.78041667,5.14172308 4.78041667,5.566372 C4.78041667,5.98508283 4.92459481,6.33515897 5.2129814,6.61620855 C5.50127708,6.89728828 5.88199465,7.0379035 6.35492199,7.0379035 L6.37222458,7.0379035 C6.85675768,7.0379035 7.2475659,6.89740885 7.54455833,6.61620855 C7.84155076,6.33515897 7.98715311,5.98520341 7.98142598,5.566372 C7.97566855,5.14175322 7.82849049,4.79044124 7.54019481,4.51219492 C7.25192943,4.23388831 6.86824224,4.09478022 6.38955747,4.09478022 Z" id="Shape" fill="#FFFFFF"></path>
            <rect id="Rectangle-3" stroke="#FFFFFF" stroke-width="1.8" x="0.9" y="0.9" width="20.0533333" height="20.0388278" rx="2"></rect>
        </g>
    </g>
</svg>