<?xml version="1.0" encoding="UTF-8"?>
<svg width="435px" height="487px" viewBox="0 0 435 487" version="1.1" xmlns="http://www.w3.org/2000/svg" xmlns:xlink="http://www.w3.org/1999/xlink">
    <!-- Generator: Sketch 52.5 (67469) - http://www.bohemiancoding.com/sketch -->
    <title>Icon / Mascot</title>
    <desc>Created with Sketch.</desc>
    <g id="Icon-/-Mascot" stroke="none" stroke-width="1" fill="none" fill-rule="evenodd">
        <path d="M109.980811,125.12236 L129.501464,144.405433 L167.831048,182.254881 C160.058226,192.636713 155.401029,205.478331 155.401029,219.437767 C155.401029,233.21729 159.940098,245.911439 167.532775,256.222486 L117.774306,305.91666 C115.15777,305.15277 112.839508,303.813749 109.585082,302.70773 C92.2409372,296.811911 81.4469907,293.328688 77.232774,286.005368 C73.1839366,278.965187 75.4401815,271.786386 77.4306384,265.454059 C78.1748449,263.073906 78.8895193,260.794032 79.2468565,258.661627 C77.09988,256.01013 76.1016984,253.485458 76.2021072,250.98143 C76.3113756,248.244402 77.6875669,246.28896 79.0224133,244.90275 C74.7668519,242.566837 73.396567,239.523073 73.0156042,237.305136 C72.1650826,232.382614 75.1566743,227.696042 79.1553073,223.242472 C62.7857189,213.462314 65.1837174,203.540586 65.546961,202.351984 C65.8186554,201.437675 66.4063423,200.64724 67.1918935,200.107503 C67.3690855,199.986578 84.5005996,188.295219 95.8586074,177.698082 C94.8013618,160.597553 106.646648,132.560707 109.980811,125.12236 M217.710599,178.420681 C240.355738,178.420681 258.780754,196.821889 258.780754,219.437767 C258.780754,242.053645 240.355738,260.451903 217.710599,260.451903 C195.068414,260.451903 176.643398,242.053645 176.643398,219.437767 C176.643398,196.821889 195.068414,178.420681 217.710599,178.420681 M217.710599,4 C118.852224,4 35.5867454,70.4437266 10.085862,161.037011 C9.97364043,161.429279 9.86141882,161.821547 9.75215042,162.213815 C8.91048837,165.266428 8.14560953,168.345585 7.43388829,171.451286 C7.27441548,172.162088 7.10017667,172.86994 6.94365706,173.583691 C6.32939143,176.406252 5.791909,179.252407 5.29281818,182.11331 C5.12153257,183.065961 4.93843416,184.009764 4.78191455,184.968314 C4.34779413,187.658152 3.99341011,190.371586 3.66265169,193.093867 C3.52385128,194.193988 3.35847207,195.288209 3.24034407,196.394228 C2.95093045,199.134206 2.74715964,201.897779 2.56110803,204.664301 C2.48727803,205.737877 2.37210322,206.802605 2.31599242,207.88208 C2.11517481,211.680886 2.0029532,215.503288 2.0029532,219.349285 C2.0029532,219.378779 2,219.408273 2,219.437767 C2,219.461362 2.0029532,219.487906 2.0029532,219.511501 C2.0029532,223.313258 2.11222161,227.088469 2.30713282,230.843035 C2.36915002,231.949054 2.48137163,233.037377 2.55520163,234.137497 C2.73830004,236.830285 2.93321125,239.523073 3.21376527,242.186367 C3.33779967,243.345475 3.50317888,244.489836 3.64493249,245.643045 C3.96387811,248.265048 4.30349612,250.881151 4.71694415,253.476609 C4.88232335,254.514793 5.08018777,255.538229 5.26033297,256.570513 C5.7357982,259.310491 6.25260823,262.035722 6.82848226,264.737358 C7.00862747,265.557287 7.20058548,266.374266 7.38959029,267.188297 C8.05996672,270.161276 8.78940716,273.107711 9.58677121,276.03055 C9.72557161,276.537844 9.87027842,277.048088 10.012032,277.555382 C10.9452433,280.885237 11.9552377,284.179699 13.0420154,287.441718 C13.0715474,287.52725 13.0981262,287.615731 13.1276582,287.701263 C23.4904376,318.666848 40.6455773,346.520832 62.9127065,369.434598 L62.9127065,414.58672 L116.752499,414.58672 C102.456057,435.138029 94.0512489,460.080971 94.0512489,487 L117.425828,487 C117.425828,426.050976 160.388984,375.1682 217.710599,362.804382 L217.710599,359.928732 C185.948931,360.816497 157.107979,373.342532 135.27497,393.36885 L84.1550752,393.36885 L84.1550752,369.021684 L183.54798,271.450157 C193.361464,277.894561 205.088622,281.669773 217.710599,281.669773 C252.130147,281.669773 280.026076,253.806941 280.026076,219.437767 C280.026076,185.065644 252.130147,157.202811 217.710599,157.202811 C205.056136,157.202811 193.3024,160.995719 183.47415,167.466668 L89.2788775,73.3931108 C123.59211,43.2592527 168.536863,24.9258807 217.710599,24.9258807 C325.106676,24.9258807 412.477103,112.183411 412.477103,219.437767 C412.477103,271.261396 392.076396,318.41615 358.87652,353.316213 L371.646157,370.357755 C409.860567,331.49077 433.427105,278.213095 433.427105,219.437767 C433.427105,100.453711 336.8486,4 217.710599,4" id="Fill-1" fill="#FFFFFF"></path>
    </g>
</svg>