<?xml version="1.0" encoding="UTF-8"?>
<svg width="243px" height="61px" viewBox="0 0 243 61" version="1.1" xmlns="http://www.w3.org/2000/svg" xmlns:xlink="http://www.w3.org/1999/xlink">
    <!-- Generator: Sketch 52.5 (67469) - http://www.bohemiancoding.com/sketch -->
    <title>Icon / Medium NEXTZY</title>
    <desc>Created with Sketch.</desc>
    <defs>
        <polygon id="path-1" points="0 0.351784203 68.7248531 0.351784203 68.7248531 14.2444817 0 14.2444817"></polygon>
    </defs>
    <g id="Icon-/-Medium-NEXTZY" stroke="none" stroke-width="1" fill="none" fill-rule="evenodd">
        <g id="Group" transform="translate(4.000000, 1.000000)">
            <g id="Group-30-Copy" transform="translate(84.147541, 43.524590)">
                <polygon id="Fill-1" fill="#63BC46" points="22.1227666 7.31557794 19.1683702 3.72809657 19.1683702 6.01423666 13.8926623 6.01423666 13.8926623 8.58174784 19.1683702 8.58174784 19.1683702 10.8682396"></polygon>
                <mask id="mask-2" fill="white">
                    <use xlink:href="#path-1"></use>
                </mask>
                <g id="Clip-3"></g>
                <path d="M20.3641973,11.6769705 L13.8926623,11.6769705 L13.8926623,8.37086021 L13.8926623,5.80334903 L13.8926623,2.91929538 L20.3641973,2.91929538 L23.9516787,7.28054724 L20.3641973,11.6769705 Z M64.5746295,0.351784203 C63.4139738,1.82898241 62.2181466,3.23583785 61.0574909,4.71303607 L57.5755237,0.351784203 L55.2542122,0.351784203 L53.3901288,0.351784203 L44.2807398,0.351784203 L43.1904268,0.351784203 L33.9403523,0.351784203 L31.5135267,0.351784203 L29.6846146,0.351784203 C28.4887875,1.82898241 27.257789,3.23583785 26.0619618,4.71303607 L22.5096519,0.351784203 L20.3993687,0.351784203 L18.2539142,0.351784203 L13.7519768,0.351784203 L10.3051809,0.351784203 L10.1644954,0.351784203 L10.1644954,9.42600179 C9.46106766,8.08948912 8.68729717,6.68263368 7.8431839,5.45163517 L4.39638808,0.351784203 L-3.5171386e-05,0.351784203 L-3.5171386e-05,14.2444817 L3.44676066,14.2444817 L3.44676066,10.0590867 C3.44676066,7.80811803 3.41158927,5.83852042 3.27090373,3.97443696 L3.37641788,3.97443696 C4.15018838,5.59232072 5.27567273,7.3860614 6.26047154,8.86325961 L9.81278152,14.2444817 L10.1644954,14.2444817 L13.7519768,14.2444817 L18.2539142,14.2444817 L20.7510826,14.2444817 L22.5096519,14.2444817 L26.0971332,9.88322981 L29.6846146,14.2444817 L33.9403523,14.2444817 L28.2074164,7.31571863 L31.7597264,2.98963815 L35.9802927,2.98963815 L35.9802927,14.2444817 L39.743631,14.2444817 L39.743631,2.98963815 L43.1904268,2.98963815 L50.400561,2.98963815 L42.4869991,12.520732 L42.4869991,14.2444817 L57.0127815,14.2444817 L57.0127815,11.6414474 L47.5165073,11.6414474 L47.5165073,11.5714563 L55.0783553,2.42689598 L59.1582361,7.49157556 L59.1582361,14.2444817 L62.9919171,14.2444817 L62.9919171,7.49157556 L68.7248531,0.351784203 L64.5746295,0.351784203 Z" id="Fill-2" fill="#FFFFFF" mask="url(#mask-2)"></path>
            </g>
            <g id="medium-2">
                <path d="M99.6129538,25.010952 C99.8914426,25.010952 100.03997,24.9175579 100.188497,24.6747331 L106.575174,12.6642461 C107.336377,11.2259762 108.09758,9.6569546 108.468898,8.89112261 C108.524596,8.74169198 108.654558,8.79772846 108.654558,8.89112261 L108.654558,30.1849877 C108.654558,30.4278125 108.803085,30.5585643 109.025876,30.5585643 L112.998983,30.5585643 C113.24034,30.5585643 113.370302,30.4091336 113.370302,30.1849877 L113.370302,1.56902164 C113.370302,1.32619686 113.221774,1.19544506 112.998983,1.19544506 L107.781959,1.19544506 C107.447773,1.19544506 107.262114,1.34487569 107.113586,1.56902164 L98.8331851,17.912997 C98.7774873,18.0063912 98.7403555,18.0063912 98.6846577,17.912997 L90.4042566,1.56902164 C90.2557292,1.32619686 90.07007,1.19544506 89.7358834,1.19544506 L84.5188594,1.19544506 C84.2775024,1.19544506 84.147541,1.34487569 84.147541,1.56902164 L84.147541,30.2036665 C84.147541,30.4464913 84.2960684,30.5772431 84.5188594,30.5772431 L88.4919667,30.5772431 C88.7333237,30.5772431 88.8632851,30.4278125 88.8632851,30.2036665 L88.8632851,8.90980144 C88.8632851,8.81640729 89.0118125,8.76037081 89.0489443,8.90980144 C89.4202628,9.67563343 90.1814655,11.2446551 90.9426683,12.6829249 L97.3293454,24.693412 C97.4778728,24.9362367 97.6078342,25.0296309 97.904889,25.0296309 L99.6129538,25.0296309 L99.6129538,25.010952 Z M161.994451,0.485649554 C161.994451,0.242824777 161.845923,0.112072974 161.623132,0.112072974 L157.650025,0.112072974 C157.408668,0.112072974 157.278707,0.261503606 157.278707,0.485649554 L157.278707,9.88110055 C157.278707,10.0305312 157.223009,10.0678888 157.093047,10.0305312 C155.347851,9.26469919 153.676918,8.83508612 151.783194,8.83508612 C145.916363,8.83508612 141.553371,12.8323555 141.553371,19.7061646 C141.553371,27.420521 146.139154,30.9508197 151.411875,30.9508197 C153.881143,30.9508197 155.811999,30.2783818 157.798552,28.8587908 L161.066155,30.5212066 C161.641698,30.801389 162.013017,30.5212066 162.013017,29.9981994 L162.013017,0.485649554 L161.994451,0.485649554 Z M117.807557,19.7248434 C117.807557,27.6820246 123.117411,30.913462 128.408698,30.913462 C131.490641,30.913462 134.368359,30.0542359 136.837627,28.2050318 C137.078984,28.0182435 137.116116,27.8688129 136.986154,27.5886305 L135.705106,25.1603827 C135.556578,24.8802002 135.370919,24.8802002 135.129562,25.010952 C132.86452,26.3371489 130.970796,26.9722291 128.687187,26.9722291 C125.995129,26.9722291 122.913186,25.5899957 122.486169,21.1070768 C122.486169,21.0510403 122.486169,20.9576462 122.634697,20.9576462 L137.450302,20.9576462 C137.933016,20.9576462 137.877318,20.1544565 137.877318,19.4259822 C137.877318,11.7489834 133.328668,8.79772846 128.260171,8.79772846 C122.337642,8.81640729 117.807557,12.776319 117.807557,19.7248434 Z M186.612863,26.9722291 C184.626309,26.9722291 183.252431,26.2063971 182.639756,24.8241638 C182.361267,24.2077624 182.21274,23.3858939 182.21274,22.1530912 L182.21274,9.47016631 C182.21274,9.22734153 182.064212,9.09658973 181.841421,9.09658973 L177.849748,9.09658973 C177.608391,9.09658973 177.47843,9.24602036 177.47843,9.47016631 L177.47843,22.3398795 C177.47843,24.3385142 177.756918,25.6833899 178.239632,26.766762 C179.520681,29.5685863 182.268437,30.913462 185.870226,30.913462 C188.562285,30.913462 190.604536,30.2410242 192.646788,28.8214332 L195.91439,30.4838489 C196.489933,30.7640314 196.861252,30.4838489 196.861252,29.9608417 L196.861252,9.48884514 C196.861252,9.24602036 196.712724,9.11526856 196.489933,9.11526856 L192.516826,9.11526856 C192.275469,9.11526856 192.145508,9.26469919 192.145508,9.48884514 L192.145508,22.6947772 C192.145508,23.8902223 192.08981,24.4132295 191.347173,25.1790615 C189.824767,26.5986525 188.26523,26.9722291 186.612863,26.9722291 Z M146.306247,19.7248434 C146.306247,15.1485303 148.812646,12.776319 151.987419,12.776319 C153.602654,12.776319 155.069362,13.1498956 156.294713,14.2519465 C157.148745,15.0177785 157.241575,15.6902164 157.241575,17.2965957 L157.241575,22.6760984 C157.241575,23.8715435 157.185877,24.3945507 156.44324,25.1603827 C154.976532,26.5986525 153.416995,26.9722291 151.987419,26.9722291 C149.48102,26.9722291 146.306247,25.347171 146.306247,19.7248434 Z M167.527095,30.2036665 C167.527095,30.4464913 167.675623,30.5772431 167.898414,30.5772431 L171.871521,30.5772431 C172.112878,30.5772431 172.24284,30.4278125 172.24284,30.2036665 L172.24284,9.47016631 C172.24284,9.22734153 172.094312,9.09658973 171.871521,9.09658973 L167.898414,9.09658973 C167.657057,9.09658973 167.527095,9.24602036 167.527095,9.47016631 L167.527095,30.2036665 Z M122.671829,17.0537709 C123.154543,14.3453407 125.141096,12.5708519 128.167341,12.5708519 C131.193587,12.5708519 133.050179,14.6628808 133.050179,17.147165 C133.050179,17.2405592 132.994481,17.2965957 132.901651,17.2965957 L122.820356,17.2965957 C122.634697,17.2965957 122.671829,17.1098074 122.671829,17.0537709 Z M167.100079,2.67107255 C167.100079,4.14670004 168.32543,5.3421451 169.884968,5.3421451 C171.444505,5.3421451 172.669856,4.14670004 172.669856,2.67107255 C172.669856,1.19544506 171.444505,0 169.884968,0 C168.32543,0 167.100079,1.19544506 167.100079,2.67107255 Z M230.317043,30.2036665 C230.317043,30.4464913 230.46557,30.5772431 230.688361,30.5772431 L234.661468,30.5772431 C234.902825,30.5772431 235.032787,30.4278125 235.032787,30.2036665 L235.032787,17.6328146 C235.032787,15.2045668 234.661468,13.6729028 234.030227,12.4401001 C232.712047,9.91845821 230.149949,8.81640729 227.012309,8.81640729 C224.171723,8.81640729 221.572494,9.82506406 219.530242,11.8236988 C218.007837,9.82506406 215.779926,8.81640729 213.087867,8.81640729 C210.52577,8.81640729 208.502085,9.48884514 206.552663,10.9084361 L203.285061,9.24602036 C202.709517,8.96583793 202.338199,9.24602036 202.338199,9.76902757 L202.338199,30.2036665 C202.338199,30.4464913 202.486726,30.5772431 202.709517,30.5772431 L206.682624,30.5772431 C206.923981,30.5772431 207.053943,30.4278125 207.053943,30.2036665 L207.053943,17.0537709 C207.053943,15.8209682 207.146772,15.2419245 207.759448,14.5694866 C208.799139,13.4300781 210.358677,12.8136767 211.973912,12.8136767 C214.628839,12.8136767 216.281206,14.3453407 216.281206,17.147165 L216.281206,30.2036665 C216.281206,30.4464913 216.429733,30.5772431 216.652524,30.5772431 L220.625632,30.5772431 C220.866989,30.5772431 220.99695,30.4278125 220.99695,30.2036665 L220.99695,17.0537709 C220.99695,15.8209682 221.08978,15.2419245 221.702455,14.5694866 C222.742147,13.4300781 224.301684,12.8136767 225.916919,12.8136767 C227.662116,12.8136767 228.998862,13.4861145 229.704367,14.7749537 C230.038554,15.4473916 230.224213,16.3066177 230.224213,17.483384 L230.224213,30.2036665 L230.317043,30.2036665 Z" id="Shape" fill="#FFFFFF" fill-rule="nonzero"></path>
                <g id="XMLID_98_" transform="translate(0.000000, 1.934426)">
                    <g id="XMLID_99_">
                        <path d="M38.5332034,0.0560543964 C38.2357932,-0.0747391952 38.0127356,0.0560543964 38.0127356,0.392380775 L38.0127356,40.396535 L55.448406,49.1410209 C56.3034602,49.5707712 57.0098094,49.1410209 57.0098094,48.1507265 L57.0098094,9.66004098 C57.0098094,9.4545082 56.9168687,9.28634501 56.7309873,9.21160581 L38.5332034,0.0560543964 Z" id="XMLID_103_" fill="#2FFC8D"></path>
                        <path d="M18.9970737,30.8486028 L37.6967373,0.31764158 C37.8640305,0.0373695976 38.2543814,-0.0747391952 38.5332034,0.0747391952 L56.6008704,9.13686662 C56.823928,9.24897541 56.9168687,9.52924739 56.7681636,9.75346498 L37.9941475,40.396535 L18.9970737,30.8486028 Z" id="XMLID_102_" fill="#03E370"></path>
                        <path d="M2.10045923,0.859500745 C0.947994874,0.261587183 0.557644043,0.710022355 1.2268169,1.83111028 L18.9970737,30.8486028 L37.9941475,40.4152198 L19.1271907,9.54793219 C19.0528381,9.4171386 18.9227212,9.30502981 18.7926043,9.23029061 L2.10045923,0.859500745 Z" id="XMLID_101_" fill="#10C767"></path>
                        <path d="M18.9970737,48.1694113 C18.9970737,49.1410209 18.2907246,49.589456 17.4356704,49.1597057 L1.05952368,40.9197094 C0.464703369,40.6207526 0,39.8546759 0,39.2007079 L0,0.971609538 C0,0.31764158 0.464703369,0.0186847988 1.05952368,0.31764158 L18.7740161,9.23029061 C18.9041331,9.30502981 19.0156619,9.4545082 19.0156619,9.60398659 L19.0156619,48.1694113 L18.9970737,48.1694113 Z" id="XMLID_100_" fill="#00AB6C"></path>
                    </g>
                </g>
            </g>
        </g>
    </g>
</svg>