<?xml version="1.0" encoding="UTF-8"?>
<svg width="245px" height="70px" viewBox="0 0 245 70" version="1.1" xmlns="http://www.w3.org/2000/svg" xmlns:xlink="http://www.w3.org/1999/xlink">
    <!-- Generator: Sketch 52.5 (67469) - http://www.bohemiancoding.com/sketch -->
    <title>Icon / Medium DCEN</title>
    <desc>Created with Sketch.</desc>
    <g id="Icon-/-Medium-DCEN" stroke="none" stroke-width="1" fill="none" fill-rule="evenodd">
        <g id="Group" transform="translate(4.000000, 1.000000)">
            <g id="medium-2">
                <path d="M100.047102,25.1199586 C100.326805,25.1199586 100.47598,25.0261574 100.625154,24.7822743 L107.039667,12.7194413 C107.804187,11.274903 108.568707,9.69904302 108.941644,8.92987326 C108.997585,8.77979136 109.128113,8.83607208 109.128113,8.92987326 L109.128113,30.3165445 C109.128113,30.5604276 109.277287,30.6917493 109.501049,30.6917493 L113.491473,30.6917493 C113.733882,30.6917493 113.86441,30.5416674 113.86441,30.3165445 L113.86441,1.57585999 C113.86441,1.33197689 113.715235,1.20065523 113.491473,1.20065523 L108.251711,1.20065523 C107.916068,1.20065523 107.7296,1.35073713 107.580425,1.57585999 L99.263935,17.9910682 C99.2079945,18.0848694 99.1707008,18.0848694 99.1147603,17.9910682 L90.7982703,1.57585999 C90.6490956,1.33197689 90.4626272,1.20065523 90.1269841,1.20065523 L84.8872225,1.20065523 C84.6448136,1.20065523 84.5142857,1.35073713 84.5142857,1.57585999 L84.5142857,30.3353048 C84.5142857,30.5791879 84.6634604,30.7105095 84.8872225,30.7105095 L88.8776459,30.7105095 C89.1200548,30.7105095 89.2505827,30.5604276 89.2505827,30.3353048 L89.2505827,8.9486335 C89.2505827,8.85483231 89.3997574,8.7985516 89.4370511,8.9486335 C89.8099879,9.71780326 90.5745083,11.2936632 91.3390286,12.7382016 L97.7535411,24.8010346 C97.9027158,25.0449177 98.0332437,25.1387189 98.3315931,25.1387189 L100.047102,25.1387189 L100.047102,25.1199586 Z M162.70048,0.487766187 C162.70048,0.243883093 162.551305,0.112561428 162.327543,0.112561428 L158.33712,0.112561428 C158.094711,0.112561428 157.964183,0.262643331 157.964183,0.487766187 L157.964183,9.92416588 C157.964183,10.0742478 157.908242,10.1117683 157.777714,10.0742478 C156.024912,9.30507802 154.346696,8.87359255 152.444719,8.87359255 C146.552318,8.87359255 142.170311,12.8882835 142.170311,19.792051 C142.170311,27.5400293 146.77608,31.0857143 152.071782,31.0857143 C154.551811,31.0857143 156.491083,30.4103457 158.486294,28.9845676 L161.768138,30.6542288 C162.34619,30.9356324 162.719127,30.6542288 162.719127,30.1289422 L162.719127,0.487766187 L162.70048,0.487766187 Z M118.321004,19.8108113 C118.321004,27.8026726 123.654,31.0481938 128.968349,31.0481938 C132.063724,31.0481938 134.953984,30.1852229 137.434014,28.3279593 C137.676423,28.1403569 137.713716,27.990275 137.583188,27.7088715 L136.296556,25.2700405 C136.147382,24.988637 135.960913,24.988637 135.718504,25.1199586 C133.44359,26.4519355 131.541613,27.0897836 129.248051,27.0897836 C126.54426,27.0897836 123.448885,25.701526 123.020007,21.1990689 C123.020007,21.1427882 123.020007,21.048987 123.169182,21.048987 L138.049359,21.048987 C138.534177,21.048987 138.478237,20.2422967 138.478237,19.5106475 C138.478237,11.8001897 133.909761,8.83607208 128.819174,8.83607208 C122.870833,8.85483231 118.321004,12.8320028 118.321004,19.8108113 Z M187.426188,27.0897836 C185.430976,27.0897836 184.05111,26.3206138 183.435764,24.9323562 C183.156062,24.3132684 183.006887,23.4878179 183.006887,22.2496422 L183.006887,9.51144064 C183.006887,9.26755755 182.857712,9.13623588 182.63395,9.13623588 L178.62488,9.13623588 C178.382471,9.13623588 178.251943,9.28631779 178.251943,9.51144064 L178.251943,22.4372446 C178.251943,24.4445901 178.531646,25.7953272 179.016464,26.883421 C180.303096,29.6974567 183.062828,31.0481938 186.680314,31.0481938 C189.384106,31.0481938 191.435258,30.3728252 193.48641,28.9470472 L196.768254,30.6167083 C197.346306,30.8981119 197.719243,30.6167083 197.719243,30.0914217 L197.719243,9.53020088 C197.719243,9.28631779 197.570068,9.15499612 197.346306,9.15499612 L193.355883,9.15499612 C193.113474,9.15499612 192.982946,9.30507802 192.982946,9.53020088 L192.982946,22.7936891 C192.982946,23.9943443 192.927005,24.519631 192.181132,25.2888008 C190.652091,26.7145788 189.085756,27.0897836 187.426188,27.0897836 Z M146.943901,19.8108113 C146.943901,15.214553 149.461224,12.8320028 152.649834,12.8320028 C154.272109,12.8320028 155.745209,13.2072075 156.9759,14.3140616 C157.833655,15.0832313 157.926889,15.7585999 157.926889,17.3719803 L157.926889,22.7749289 C157.926889,23.9755841 157.870949,24.5008708 157.125075,25.2700405 C155.651975,26.7145788 154.08564,27.0897836 152.649834,27.0897836 C150.132511,27.0897836 146.943901,25.4576429 146.943901,19.8108113 Z M168.257238,30.3353048 C168.257238,30.5791879 168.406412,30.7105095 168.630175,30.7105095 L172.620598,30.7105095 C172.863007,30.7105095 172.993535,30.5604276 172.993535,30.3353048 L172.993535,9.51144064 C172.993535,9.26755755 172.84436,9.13623588 172.620598,9.13623588 L168.630175,9.13623588 C168.387766,9.13623588 168.257238,9.28631779 168.257238,9.51144064 L168.257238,30.3353048 Z M123.206476,17.1280972 C123.691294,14.4078627 125.686505,12.6256401 128.72594,12.6256401 C131.765375,12.6256401 133.630059,14.7267868 133.630059,17.2218984 C133.630059,17.3156996 133.574118,17.3719803 133.480884,17.3719803 L123.35565,17.3719803 C123.169182,17.3719803 123.206476,17.184378 123.206476,17.1280972 Z M167.82836,2.68271403 C167.82836,4.16477283 169.059052,5.36542805 170.625386,5.36542805 C172.191721,5.36542805 173.422412,4.16477283 173.422412,2.68271403 C173.422412,1.20065523 172.191721,0 170.625386,0 C169.059052,0 167.82836,1.20065523 167.82836,2.68271403 Z M231.320846,30.3353048 C231.320846,30.5791879 231.470021,30.7105095 231.693783,30.7105095 L235.684206,30.7105095 C235.926615,30.7105095 236.057143,30.5604276 236.057143,30.3353048 L236.057143,17.7096646 C236.057143,15.2708337 235.684206,13.7324942 235.050214,12.4943185 C233.726288,9.96168635 231.153024,8.85483231 228.001709,8.85483231 C225.148742,8.85483231 222.538185,9.86788516 220.487033,11.8752306 C218.957992,9.86788516 216.720371,8.85483231 214.01658,8.85483231 C211.443316,8.85483231 209.410811,9.53020088 207.452892,10.955979 L204.171049,9.28631779 C203.592997,9.00491422 203.22006,9.28631779 203.22006,9.81160445 L203.22006,30.3353048 C203.22006,30.5791879 203.369235,30.7105095 203.592997,30.7105095 L207.58342,30.7105095 C207.825829,30.7105095 207.956357,30.5604276 207.956357,30.3353048 L207.956357,17.1280972 C207.956357,15.8899215 208.049591,15.3083542 208.664937,14.6329856 C209.70916,13.4886111 211.275494,12.8695232 212.897769,12.8695232 C215.564267,12.8695232 217.223836,14.4078627 217.223836,17.2218984 L217.223836,30.3353048 C217.223836,30.5791879 217.373011,30.7105095 217.596773,30.7105095 L221.587196,30.7105095 C221.829605,30.7105095 221.960133,30.5604276 221.960133,30.3353048 L221.960133,17.1280972 C221.960133,15.8899215 222.053367,15.3083542 222.668713,14.6329856 C223.712936,13.4886111 225.27927,12.8695232 226.901545,12.8695232 C228.654348,12.8695232 229.99692,13.5448918 230.7055,14.8393482 C231.041143,15.5147168 231.227612,16.3776877 231.227612,17.5595827 L231.227612,30.3353048 L231.320846,30.3353048 Z" id="Shape" fill="#FFFFFF" fill-rule="nonzero"></path>
                <g id="XMLID_98_" transform="translate(0.000000, 1.942857)">
                    <g id="XMLID_99_">
                        <path d="M38.7011447,0.0562987013 C38.4024383,-0.0750649351 38.1784086,0.0562987013 38.1784086,0.394090909 L38.1784086,40.5725974 L55.6900698,49.3551948 C56.5488506,49.7868182 57.2582783,49.3551948 57.2582783,48.3605844 L57.2582783,9.70214286 C57.2582783,9.49571429 57.1649325,9.32681818 56.978241,9.25175325 L38.7011447,0.0562987013 Z" id="XMLID_103_" fill="#2FFC8D"></path>
                        <path d="M19.0798697,30.9830519 L37.861033,0.319025974 C38.0290554,0.0375324675 38.4211075,-0.0750649351 38.7011447,0.0750649351 L56.847557,9.17668831 C57.0715868,9.28928571 57.1649325,9.57077922 57.0155793,9.79597403 L38.1597394,40.5725974 L19.0798697,30.9830519 Z" id="XMLID_102_" fill="#03E370"></path>
                        <path d="M2.10961377,0.863246753 C0.95212657,0.262727273 0.560074453,0.713116883 1.2321638,1.83909091 L19.0798697,30.9830519 L38.1597394,40.5913636 L19.2105537,9.58954545 C19.1358772,9.45818182 19.0051931,9.34558442 18.8745091,9.27051948 L2.10961377,0.863246753 Z" id="XMLID_101_" fill="#10C767"></path>
                        <path d="M19.0798697,48.3793506 C19.0798697,49.3551948 18.3704421,49.8055844 17.5116612,49.373961 L1.06414146,41.0980519 C0.466728711,40.7977922 0,40.0283766 0,39.3715584 L0,0.975844156 C0,0.319025974 0.466728711,0.0187662338 1.06414146,0.319025974 L18.8558399,9.27051948 C18.986524,9.34558442 19.0985389,9.49571429 19.0985389,9.64584416 L19.0985389,48.3793506 L19.0798697,48.3793506 Z" id="XMLID_100_" fill="#00AB6C"></path>
                    </g>
                </g>
            </g>
            <text id="Blockchain-blog" font-family="AndaleMono, Andale Mono" font-size="12" font-weight="normal" fill="#FFFFFF">
                <tspan x="89.1882813" y="51.8">Blockchain </tspan>
                <tspan x="132.395313" y="65.8">blog</tspan>
            </text>
            <g id="dcen-logo-white" transform="translate(167.028571, 43.714286)">
                <path d="M8.74285714,0 L15.5197957,0 C19.4208843,0 21.3714286,1.5677865 21.3714286,4.70335949 L21.3714286,17.6508951 C21.3714286,20.7712715 19.3258862,22.3352588 15.2348015,22.3428571 L8.74285714,22.3428571 L8.74285714,0 Z M13.1362083,3.17609736 L13.1362083,19.1667598 L15.0645453,19.1667598 C16.3377659,19.1667598 16.9743762,18.6602052 16.9743762,17.647096 L16.9743762,4.70335949 C16.9743762,3.69025028 16.3377659,3.18369568 15.0645453,3.18369568 L13.1362083,3.17609736 Z" id="Shape" fill="#FFFFFF" fill-rule="nonzero"></path>
                <rect id="Rectangle" fill="#F29100" x="0" y="9.71428571" width="3.88571429" height="3.88571429"></rect>
                <rect id="Rectangle" fill="#F29100" x="3.88571429" y="13.6" width="3.88571429" height="3.88571429"></rect>
                <rect id="Rectangle" fill="#F29100" x="3.88571429" y="4.85714286" width="3.88571429" height="3.88571429"></rect>
                <path d="M33.5131455,17.9657242 C33.5131455,18.9772945 32.8683769,19.4868825 31.5862508,19.4868825 C30.3041247,19.4868825 29.6704728,18.9810974 29.6704728,17.9657242 L29.6704728,13.6 L25.2571429,13.6 L25.2571429,17.9657242 C25.2571429,21.1031132 27.3619048,22.3428571 31.5566063,22.3428571 C35.7513078,22.3428571 37.8857143,21.0955074 37.8857143,17.9657242 L37.8857143,14.9576338 L33.5131455,14.9576338 L33.5131455,17.9657242 Z" id="Path" fill="#F29100"></path>
                <path d="M31.5714286,0 C27.3717631,0 25.2571429,1.26285714 25.2571429,4.59404762 L25.2571429,9.71428571 L29.6601372,9.71428571 L29.6601372,4.59404762 C29.6601372,3.51468254 30.2910728,2.975 31.5529441,2.975 L31.5862161,2.975 C32.8579458,2.975 33.4938106,3.51468254 33.4938106,4.59404762 L33.4938106,7.79571429 L37.8857143,7.79571429 L37.8857143,4.59404762 C37.8857143,1.26285714 35.7784878,0 31.5714286,0 Z" id="Path" fill="#F29100"></path>
                <rect id="Rectangle" fill="#F29100" x="56.3428571" y="13.6" width="3.88571429" height="8.74285714"></rect>
                <polygon id="Path" fill="#F29100" points="64.6848646 0 64.6848646 12.9589331 60.6872013 0 56.3428571 0 56.3428571 9.14457697 60.6221986 9.14457697 64.4754116 22.3428571 68.9714286 22.3428571 68.9714286 0"></polygon>
                <polygon id="Path" fill="#F29100" points="52.4571429 4.63877378 52.4571429 0 52.147759 0 52.147759 0 40.8 0 40.8 9.14457697 45.1645227 9.14457697 45.1645227 13.6427818 40.8 13.6427818 40.8 22.3428571 52.147759 22.3428571 52.147759 22.3428571 52.4571429 22.3428571 52.4571429 17.7800666 45.1755721 17.7800666 45.1755721 13.6731751 52.4571429 13.6731751 52.4571429 9.11418369 45.1755721 9.11418369 45.1755721 4.63877378"></polygon>
            </g>
        </g>
    </g>
</svg>