<svg xmlns="http://www.w3.org/2000/svg" width="243" height="61">
  <g fill="none" fill-rule="evenodd">
    <path fill="#FFF" fill-rule="nonzero" d="M103.613 26.011c.278 0 .427-.093.575-.336l6.387-12.01a124.478 124.478 0 0 0 1.894-3.774c.056-.15.186-.093.186 0v21.294c0 .243.148.374.37.374H117c.241 0 .371-.15.371-.374V2.569c0-.243-.148-.374-.371-.374h-5.217c-.334 0-.52.15-.668.374l-8.28 16.344c-.057.093-.094.093-.15 0l-8.28-16.344c-.148-.243-.334-.374-.668-.374H88.52c-.241 0-.371.15-.371.374v28.635c0 .242.148.373.37.373h3.974c.241 0 .371-.15.371-.373V9.91c0-.094.149-.15.186 0a124.48 124.48 0 0 0 1.894 3.773l6.386 12.01c.149.243.279.337.576.337h1.708v-.019zm62.381-24.525c0-.243-.148-.374-.37-.374h-3.974c-.241 0-.371.15-.371.374v9.395c0 .15-.056.187-.186.15-1.745-.766-3.416-1.196-5.31-1.196-5.867 0-10.23 3.997-10.23 10.871 0 7.715 4.586 11.245 9.859 11.245 2.47 0 4.4-.673 6.387-2.092l3.267 1.662c.576.28.947 0 .947-.523V1.486h-.019zm-44.186 19.239c0 7.957 5.31 11.188 10.6 11.188 3.083 0 5.96-.859 8.43-2.708.241-.187.278-.336.148-.616l-1.28-2.429c-.15-.28-.335-.28-.576-.149-2.265 1.326-4.16 1.961-6.443 1.961-2.692 0-5.774-1.382-6.2-5.865 0-.056 0-.15.148-.15h14.815c.483 0 .427-.803.427-1.531 0-7.677-4.548-10.628-9.617-10.628-5.922.018-10.452 3.978-10.452 10.927zm68.805 7.247c-1.987 0-3.36-.766-3.973-2.148-.279-.616-.427-1.438-.427-2.67V10.47c0-.243-.149-.373-.372-.373h-3.991c-.242 0-.372.149-.372.373v12.87c0 1.999.279 3.343.762 4.427 1.28 2.802 4.028 4.146 7.63 4.146 2.692 0 4.735-.672 6.777-2.092l3.267 1.663c.576.28.947 0 .947-.523V10.489c0-.243-.148-.374-.371-.374h-3.973c-.242 0-.371.15-.371.374v13.206c0 1.195-.056 1.718-.799 2.484-1.522 1.42-3.082 1.793-4.734 1.793zm-40.307-7.247c0-4.576 2.507-6.949 5.681-6.949 1.616 0 3.082.374 4.308 1.476.854.766.947 1.438.947 3.045v5.38c0 1.195-.056 1.718-.799 2.483-1.466 1.439-3.026 1.812-4.456 1.812-2.506 0-5.68-1.625-5.68-7.247zm21.221 10.479c0 .242.149.373.371.373h3.974c.24 0 .37-.15.37-.373V10.47c0-.243-.148-.373-.37-.373h-3.974c-.24 0-.37.149-.37.373v20.734zm-44.855-13.15c.483-2.709 2.47-4.483 5.495-4.483 3.027 0 4.883 2.092 4.883 4.576 0 .094-.056.15-.148.15H126.82c-.185 0-.148-.187-.148-.243zM171.1 3.67c0 1.476 1.225 2.671 2.785 2.671s2.785-1.195 2.785-2.67c0-1.477-1.225-2.672-2.785-2.672S171.1 2.195 171.1 3.671zm63.217 27.533c0 .242.149.373.371.373h3.973c.242 0 .372-.15.372-.373v-12.57c0-2.428-.372-3.96-1.003-5.193-1.318-2.522-3.88-3.624-7.018-3.624-2.84 0-5.44 1.01-7.482 3.008-1.522-1.999-3.75-3.008-6.442-3.008-2.562 0-4.586.673-6.535 2.092l-3.268-1.662c-.575-.28-.947 0-.947.523v20.435c0 .242.149.373.372.373h3.973c.241 0 .37-.15.37-.373v-13.15c0-1.233.094-1.812.706-2.485 1.04-1.139 2.6-1.755 4.215-1.755 2.655 0 4.307 1.531 4.307 4.333v13.057c0 .242.149.373.372.373h3.973c.241 0 .37-.15.37-.373v-13.15c0-1.233.094-1.812.706-2.485 1.04-1.139 2.6-1.755 4.215-1.755 1.745 0 3.082.672 3.787 1.961.335.672.52 1.532.52 2.708v12.72h.093z"/>
    <path fill="#2FFC8D" d="M42.533 2.99c-.297-.13-.52 0-.52.337V43.33l17.435 8.744c.855.43 1.562 0 1.562-.99v-38.49c0-.206-.093-.374-.279-.449L42.533 2.99z"/>
    <path fill="#03E370" d="M22.997 33.783l18.7-30.53c.167-.281.557-.393.836-.244l18.068 9.062a.423.423 0 0 1 .167.617L41.994 43.33l-18.997-9.548z"/>
    <path fill="#10C767" d="M6.1 3.794c-1.152-.598-1.542-.15-.873.972l17.77 29.017 18.997 9.567-18.867-30.868a.912.912 0 0 0-.334-.317L6.1 3.794z"/>
    <path fill="#00AB6C" d="M22.997 51.104c0 .971-.706 1.42-1.561.99L5.06 43.854C4.465 43.555 4 42.79 4 42.135V3.906c0-.654.465-.953 1.06-.654l17.714 8.913c.13.074.242.224.242.373v38.566h-.019z"/>
    <path fill="#FFF" d="M197.964 53.944h3.675a3.9 3.9 0 0 0 .754 1.137c.365.381.809.681 1.318.894.511.213 1.091.32 1.725.32.65 0 1.22-.073 1.688-.218.43-.132.784-.268 1.054-.405v-2.04h-2.504V50.74h5.772v7.29l-.083.044c-.916.474-1.884.822-2.879 1.032a14.77 14.77 0 0 1-3.048.317c-1.105 0-2.138-.175-3.071-.519a7.084 7.084 0 0 1-2.439-1.491 6.775 6.775 0 0 1-1.604-2.353 7.13 7.13 0 0 1-.358-1.116zm-.081-3.522a7.28 7.28 0 0 1 .44-1.508c.38-.916.92-1.707 1.603-2.353a7.097 7.097 0 0 1 2.439-1.491c.933-.344 1.966-.518 3.07-.518 1.126 0 2.178.137 3.129.407a6.231 6.231 0 0 1 2.537 1.415l.113.104-2.384 2.583-.115-.118a4.198 4.198 0 0 0-1.369-.945c-.504-.211-1.146-.32-1.91-.32a4.5 4.5 0 0 0-1.725.32c-.51.214-.953.515-1.318.895a3.938 3.938 0 0 0-.9 1.529h-3.61zm-88.614 3.131H94.816v-3.131h14.453l-3.495-5.87h3.672l4.426 7.435-4.426 7.436h-3.672z"/>
    <path fill="#FFF" d="M88.554 59.423V44.552h3.131v11.74h10.175v3.131zm6.262-11.741v-3.13h7.044v3.13z"/>
    <path fill="#4B7DA0" d="M113.602 57.701l1.836-3.084 2.86 4.806h-3.672zm1.836-8.344l-1.836-3.084 1.024-1.721h3.672z"/>
    <path fill="#FFF" d="M122.212 59.423V44.552h3.131v14.871zm38.886-11.662h-4.053v-3.209h11.35v3.209h-4.054v11.662h-3.243zM172.7 59.423V44.552h3.131v14.871zm7.045-14.871h4.514l6.258 10.224V44.552h3.317v14.871h-4.356l-6.416-10.481-.002 10.481h-3.315z"/>
    <path fill="#4B7DA0" fill-opacity=".6" d="M133.171 44.552v3.029h-1.884v8.81h1.884v3.032h-3.914V44.552zm16.046 0h3.914v14.871h-3.914v-3.032h1.884v-8.81h-1.884zM136.02 59.423V56.39h6.271c.81 0 1.479-.65 1.479-1.444 0-.794-.668-1.444-1.479-1.444h-2.194c-2.527 0-4.578-2.007-4.578-4.476 0-2.471 2.05-4.475 4.578-4.475h6.461v3.029h-6.46c-.812 0-1.48.653-1.48 1.446 0 .791.668 1.445 1.48 1.445h2.193c2.527 0 4.578 2.004 4.578 4.475 0 2.47-2.051 4.476-4.578 4.476h-6.27z"/>
  </g>
</svg>
