<?xml version="1.0" encoding="UTF-8"?>
<svg width="195px" height="60px" viewBox="0 0 195 60" version="1.1" xmlns="http://www.w3.org/2000/svg" xmlns:xlink="http://www.w3.org/1999/xlink">
    <!-- Generator: Sketch 52.5 (67469) - http://www.bohemiancoding.com/sketch -->
    <title>Omisego</title>
    <desc>Created with Sketch.</desc>
    <defs>
        <polygon id="path-1" points="0 -0.000688347458 56.0641796 -0.000688347458 56.0641796 54.6795152 0 54.6795152"></polygon>
        <polygon id="path-3" points="0 0.174015408 20.7234376 0.174015408 20.7234376 28.6902928 0 28.6902928"></polygon>
        <polygon id="path-5" points="0.0885885978 0.0361263482 17.6190601 0.0361263482 17.6190601 27.49098 0.0885885978 27.49098"></polygon>
    </defs>
    <g id="Omisego" stroke="none" stroke-width="1" fill="none" fill-rule="evenodd">
        <g id="Group" transform="translate(3.000000, 2.000000)">
            <path d="M86.3660951,44.0755595 C87.5831629,44.0755595 88.5511418,44.5001116 89.2700609,45.3492287 C89.98898,46.1983457 90.3484342,47.3163331 90.3484342,48.7032243 C90.3484342,50.1014371 89.98898,51.2279155 89.2700609,52.0826933 C88.5511418,52.9374712 87.5831629,53.3648537 86.3660951,53.3648537 C85.1433665,53.3648537 84.1739724,52.9388863 83.4578837,52.0869389 C82.7417949,51.2349914 82.383756,50.1070979 82.383756,48.7032243 C82.383756,47.3106723 82.7432101,46.1912698 83.4621292,45.3449831 C84.1810484,44.4986964 85.1490273,44.0755595 86.3660951,44.0755595 Z M86.3660951,52.2100602 C87.1699259,52.2100602 87.8039238,51.8704185 88.2681078,51.1911249 C88.7322918,50.5118312 88.9643803,49.6882 88.9643803,48.7202066 C88.9643803,47.7012661 88.7351221,46.8634832 88.2765989,46.2068326 C87.8180757,45.5501821 87.1812475,45.2218618 86.3660951,45.2218618 C85.5452819,45.2218618 84.9084537,45.5459366 84.4555912,46.1940959 C84.0027288,46.8422553 83.776301,47.6842838 83.776301,48.7202066 C83.776301,49.7051824 84.0055591,50.5330591 84.4640824,51.2038616 C84.9226056,51.874664 85.5566035,52.2100602 86.3660951,52.2100602 Z M100.92838,53.1355932 L99.6037639,53.1355932 L99.6037639,47.3276615 C99.6037639,45.923788 99.3433719,45.2218618 98.8225801,45.2218618 C98.5565234,45.2218618 98.2635824,45.4638565 97.9437483,45.9478532 C97.6239143,46.4318499 97.4639996,46.6993178 97.4639996,46.7502648 L97.4639996,53.1355932 L96.1478747,53.1355932 L96.1478747,47.3276615 C96.1478747,45.923788 95.8846524,45.2218618 95.3581998,45.2218618 C95.0978039,45.2218618 94.8076933,45.4638565 94.4878592,45.9478532 C94.1680251,46.4318499 94.0081104,46.6993178 94.0081104,46.7502648 L94.0081104,53.1355932 L92.6834944,53.1355932 L92.6834944,44.2878377 L93.9571637,44.2878377 L93.9571637,45.6209448 C94.206238,45.1511 94.5020093,44.7760789 94.8444866,44.4958703 C95.1869638,44.2156617 95.5280207,44.0755595 95.8676675,44.0755595 C96.2242967,44.0755595 96.544126,44.2156617 96.827165,44.4958703 C97.110204,44.7760789 97.305498,45.1511 97.4130528,45.6209448 C97.6621272,45.1511 97.9593137,44.7760789 98.3046213,44.4958703 C98.6499289,44.2156617 98.9895706,44.0755595 99.3235567,44.0755595 C100.393444,44.0755595 100.92838,45.032217 100.92838,46.9455608 L100.92838,53.1355932 Z M107.814685,40.9423332 C108.063759,40.9423332 108.276035,41.0314891 108.451519,41.2098037 C108.627004,41.3881183 108.714744,41.6018095 108.714744,41.8508839 C108.714744,42.1112798 108.628419,42.3292165 108.455765,42.5047007 C108.283111,42.6801849 108.06942,42.7679257 107.814685,42.7679257 C107.582593,42.7679257 107.377393,42.6759394 107.199078,42.491964 C107.020763,42.3079887 106.931608,42.0942974 106.931608,41.8508839 C106.931608,41.6074703 107.020763,41.3951942 107.199078,41.2140493 C107.377393,41.0329043 107.582593,40.9423332 107.814685,40.9423332 Z M108.460011,53.1355932 L107.135395,53.1355932 L107.135395,45.43414 L104.528618,45.43414 L104.528618,44.2878377 L108.460011,44.2878377 L108.460011,53.1355932 Z M120.177767,45.5530158 C119.436205,45.3096022 118.737109,45.1878972 118.080459,45.1878972 C117.36154,45.1878972 116.79264,45.308187 116.373742,45.5487702 C115.954844,45.7893534 115.745399,46.1105978 115.745399,46.5125132 C115.745399,46.7672484 115.84163,46.9894307 116.034097,47.1790668 C116.226563,47.3687029 116.611491,47.5455997 117.18889,47.7097623 L118.454068,48.0748808 C119.037129,48.2390435 119.512627,48.4357526 119.880578,48.6650142 C120.248529,48.8942758 120.524488,49.1716499 120.708463,49.4971448 C120.892438,49.8226397 120.984425,50.2004911 120.984425,50.6307104 C120.984425,51.4741667 120.630631,52.1407136 119.923034,52.6303711 C119.215436,53.1200286 118.315385,53.3648537 117.222855,53.3648537 C116.135985,53.3648537 115.238765,53.2006935 114.531167,52.8723682 L114.785901,51.7260659 C115.527463,52.0770343 116.322791,52.2525159 117.171908,52.2525159 C117.90781,52.2525159 118.506428,52.115244 118.967782,51.8406962 C119.429135,51.5661483 119.659809,51.2024486 119.659809,50.7495862 C119.659809,50.4439041 119.54518,50.1707755 119.315918,49.9301923 C119.086656,49.6896092 118.547475,49.4391234 117.698358,49.1787275 C117.013404,48.9692786 116.509602,48.8121943 116.186937,48.7074699 C115.864273,48.6027454 115.564256,48.4484915 115.286878,48.2447034 C115.009499,48.0409153 114.798638,47.7975054 114.654289,47.5144664 C114.509939,47.2314273 114.437765,46.9144284 114.437765,46.56346 C114.437765,45.7992547 114.771746,45.1935602 115.439718,44.7463586 C116.10769,44.2991569 116.993589,44.0755595 118.097441,44.0755595 C118.810699,44.0755595 119.603197,44.1972644 120.474957,44.440678 L120.177767,45.5530158 Z M131.802122,48.7541711 L125.730965,48.7541711 C125.730965,49.7561292 126.021076,50.5825908 126.601306,51.2335805 C127.181536,51.8845703 127.893368,52.2100602 128.736825,52.2100602 C129.540656,52.2100602 130.369947,52.0657125 131.224725,51.7770127 L131.453986,52.8384037 C130.672798,53.1893721 129.761426,53.3648537 128.719842,53.3648537 C127.406541,53.3648537 126.347991,52.9431319 125.54416,52.0996756 C124.74033,51.2562193 124.33842,50.1184195 124.33842,48.6862421 C124.33842,47.2823685 124.69929,46.162966 125.421039,45.3280009 C126.142789,44.4930357 127.075388,44.0755595 128.218866,44.0755595 C129.237806,44.0755595 130.089741,44.4633171 130.774695,45.238844 C131.45965,46.0143709 131.802122,47.0474479 131.802122,48.3381058 L131.802122,48.7541711 Z M130.35863,47.6757978 C130.35863,46.9851826 130.143524,46.4035461 129.713304,45.930871 C129.283085,45.4581958 128.801926,45.2218618 128.269813,45.2218618 C127.584858,45.2218618 127.017373,45.4482896 126.567341,45.901152 C126.117309,46.3540144 125.866824,46.9455571 125.815877,47.6757978 L130.35863,47.6757978 Z M137.610054,49.7985798 C136.78358,50.2004953 136.370349,50.5542887 136.370349,50.8599709 C136.370349,51.0241335 136.465166,51.1628205 136.654802,51.2760361 C136.844438,51.3892518 137.103415,51.4458587 137.43174,51.4458587 L140.412126,51.3609474 C141.119723,51.3609474 141.670226,51.5335986 142.06365,51.8789062 C142.457075,52.2242139 142.653784,52.713864 142.653784,53.3478714 C142.653784,54.3498296 142.206589,55.1479876 141.312186,55.7423696 C140.417782,56.3367515 139.373384,56.633938 138.178959,56.633938 C137.199644,56.633938 136.398656,56.4287378 135.77597,56.0183312 C135.153284,55.6079247 134.841946,55.0772345 134.841946,54.4262447 C134.841946,53.7186472 135.323105,53.1214438 136.285438,52.6346167 C135.487268,52.2610051 135.088189,51.8024888 135.088189,51.2590539 C135.088189,50.636368 135.603312,50.0561468 136.633574,49.5183726 C136.158068,49.2296728 135.792953,48.8560669 135.538218,48.3975437 C135.283483,47.9390205 135.156118,47.455031 135.156118,46.9455608 C135.156118,46.1134261 135.439152,45.4298971 136.00523,44.8949533 C136.571308,44.3600096 137.278895,44.0925417 138.128012,44.0925417 C138.739377,44.0925417 139.291295,44.2199074 139.783782,44.4746425 L142.407541,44.0755595 L142.407541,45.3662109 L140.717807,45.3662109 C140.972542,45.8134126 141.099907,46.3398573 141.099907,46.9455608 C141.099907,47.7493916 140.819703,48.4286751 140.259286,48.9834315 C139.698868,49.538188 138.988451,49.8155621 138.128012,49.8155621 C137.946867,49.8155621 137.774216,49.8099014 137.610054,49.7985798 Z M138.128012,48.7881356 C138.61484,48.7881356 139.012503,48.6197299 139.321016,48.2829135 C139.629528,47.946097 139.783782,47.505978 139.783782,46.962543 C139.783782,46.3908042 139.633774,45.9436093 139.333753,45.6209448 C139.033731,45.2982803 138.631822,45.1369505 138.128012,45.1369505 C137.658168,45.1369505 137.263334,45.3053562 136.9435,45.6421726 C136.623666,45.978989 136.463751,46.4191081 136.463751,46.962543 C136.463751,47.4946564 136.623666,47.9319451 136.9435,48.2744223 C137.263334,48.6168996 137.658168,48.7881356 138.128012,48.7881356 Z M138.178959,55.6065115 C139.050719,55.6065115 139.793686,55.4126327 140.40788,55.0248692 C141.022075,54.6371058 141.329168,54.1573618 141.329168,53.585623 C141.329168,52.9969018 140.893294,52.7025457 140.021534,52.7025457 C139.732834,52.7025457 139.234693,52.7195278 138.527095,52.7534925 C138.079894,52.7761356 137.728931,52.787457 137.474196,52.787457 C137.349658,52.787457 137.15578,52.8893495 136.892553,53.0931376 C136.629327,53.2969257 136.428372,53.5021259 136.289683,53.7087444 C136.150994,53.9153629 136.081651,54.1290541 136.081651,54.3498245 C136.081651,54.6951322 136.274114,54.9909035 136.659047,55.2371474 C137.04398,55.4833914 137.550613,55.6065115 138.178959,55.6065115 Z M148.979674,44.0755595 C150.196742,44.0755595 151.164721,44.5001116 151.88364,45.3492287 C152.602559,46.1983457 152.962013,47.3163331 152.962013,48.7032243 C152.962013,50.1014371 152.602559,51.2279155 151.88364,52.0826933 C151.164721,52.9374712 150.196742,53.3648537 148.979674,53.3648537 C147.756946,53.3648537 146.787552,52.9388863 146.071463,52.0869389 C145.355374,51.2349914 144.997335,50.1070979 144.997335,48.7032243 C144.997335,47.3106723 145.356789,46.1912698 146.075708,45.3449831 C146.794628,44.4986964 147.762606,44.0755595 148.979674,44.0755595 Z M148.979674,52.2100602 C149.783505,52.2100602 150.417503,51.8704185 150.881687,51.1911249 C151.345871,50.5118312 151.577959,49.6882 151.577959,48.7202066 C151.577959,47.7012661 151.348701,46.8634832 150.890178,46.2068326 C150.431655,45.5501821 149.794827,45.2218618 148.979674,45.2218618 C148.158861,45.2218618 147.522033,45.5459366 147.06917,46.1940959 C146.616308,46.8422553 146.38988,47.6842838 146.38988,48.7202066 C146.38988,49.7051824 146.619138,50.5330591 147.077662,51.2038616 C147.536185,51.874664 148.170183,52.2100602 148.979674,52.2100602 Z" id="omisego" fill="#7899F5"></path>
            <g id="Group-3">
                <mask id="mask-2" fill="white">
                    <use xlink:href="#path-1"></use>
                </mask>
                <g id="Clip-2"></g>
                <path d="M28.030541,-0.000860434322 C12.5513275,-0.000860434322 -0.000688347458,12.5511555 -0.000688347458,28.0338106 C-0.000688347458,40.4171814 8.03060561,50.9248053 19.1715092,54.6315564 C20.5740172,54.8879658 21.0851151,54.0240898 21.0851151,53.2806745 C21.0851151,52.6146984 21.061023,50.8525289 21.047256,48.5121475 C13.2500002,50.2072031 11.6048498,44.7554913 11.6048498,44.7554913 C10.3296861,41.5168165 8.49179841,40.6546613 8.49179841,40.6546613 C5.94663369,38.9148631 8.6845357,38.9510013 8.6845357,38.9510013 C11.4981559,39.1489012 12.978103,41.8386189 12.978103,41.8386189 C15.4785251,46.1235818 19.5380542,44.8862773 21.1367412,44.1686751 C21.3914298,42.3566004 22.1141946,41.1210167 22.9161194,40.4206231 C16.6917375,39.7133461 10.147274,37.3092926 10.147274,26.5659097 C10.147274,23.5062052 11.2400256,21.0040622 13.0331708,19.0439928 C12.7440648,18.334995 11.7820993,15.4852365 13.3067889,11.627049 C13.3067889,11.627049 15.6609372,10.8715877 21.0162804,14.4991788 C23.2516888,13.8779452 25.6505797,13.566468 28.0339827,13.5561427 C30.4139441,13.566468 32.812835,13.8779452 35.0516851,14.4991788 C40.4035865,10.8715877 42.7525722,11.627049 42.7525722,11.627049 C44.2824245,15.4852365 43.3204589,18.334995 43.031353,19.0439928 C44.8279398,21.0040622 45.9138079,23.5062052 45.9138079,26.5659097 C45.9138079,37.3351057 39.3590193,39.7047418 33.113987,40.3999727 C34.1206951,41.2638488 35.0172677,42.9761131 35.0172677,45.5901126 C35.0172677,49.3381645 34.9828503,52.3617307 34.9828503,53.2806745 C34.9828503,54.0292524 35.4870648,54.9017328 36.9102232,54.6281147 C48.0390807,50.9144801 56.0652121,40.4137397 56.0652121,28.0338106 C56.0652121,12.5511555 43.5131962,-0.000860434322 28.030541,-0.000860434322" id="Fill-1" fill="#FEFEFE" mask="url(#mask-2)"></path>
            </g>
            <g id="Group-17" transform="translate(82.118644, 2.898305)">
                <g id="Group-3" transform="translate(0.000000, 0.118801)">
                    <mask id="mask-4" fill="white">
                        <use xlink:href="#path-3"></use>
                    </mask>
                    <g id="Clip-2"></g>
                    <path d="M20.3094777,12.3791002 L11.4482758,12.3791002 C11.2199245,12.3791002 11.0343159,12.5647088 11.0343159,12.7933529 L11.0343159,17.1255871 C11.0343159,17.3542311 11.2199245,17.5404253 11.4482758,17.5404253 L14.9051633,17.5404253 L14.9051633,22.9227827 C14.9051633,22.9227827 14.1290616,23.1874361 11.9834376,23.1874361 C9.45166564,23.1874361 5.91514792,22.2623205 5.91514792,14.4854946 C5.91514792,6.70720493 9.59775193,5.68401541 13.0549322,5.68401541 C16.0475054,5.68401541 17.3371048,6.21068721 18.1571202,6.46480123 C18.4150401,6.54355316 18.6533451,6.28680431 18.6533451,6.05816025 L19.6419892,1.87230508 C19.6419892,1.76515562 19.6056872,1.63663482 19.4838998,1.54910015 C19.1504484,1.31108783 17.1181217,0.174015408 11.9834376,0.174015408 C6.06767488,0.174015408 -2.92758089e-05,2.69056394 -2.92758089e-05,14.788792 C-2.92758089e-05,26.8876055 6.94712018,28.6904099 12.8014037,28.6904099 C17.6485994,28.6904099 20.5890616,26.6191464 20.5890616,26.6191464 C20.7102635,26.5521048 20.7234376,26.3825978 20.7234376,26.3050169 L20.7234376,12.7933529 C20.7234376,12.5647088 20.5381217,12.3791002 20.3094777,12.3791002" id="Fill-1" fill="#FEFEFE" mask="url(#mask-4)"></path>
                </g>
                <path d="M65.9748505,1.74246687 C65.9748505,1.5117735 65.7921695,1.32587211 65.5635254,1.32587211 L60.5743421,1.32587211 C60.3462835,1.32587211 60.1612604,1.5117735 60.1612604,1.74246687 C60.1612604,1.74334515 60.1624314,11.3841618 60.1624314,11.3841618 L52.3856055,11.3841618 L52.3856055,1.74246687 C52.3856055,1.5117735 52.2020462,1.32587211 51.9739877,1.32587211 L46.9848043,1.32587211 C46.7579168,1.32587211 46.5728937,1.5117735 46.5728937,1.74246687 L46.5728937,27.849755 C46.5728937,28.0801556 46.7579168,28.2675208 46.9848043,28.2675208 L51.9739877,28.2675208 C52.2020462,28.2675208 52.3856055,28.0801556 52.3856055,27.849755 L52.3856055,16.6824977 L60.1624314,16.6824977 C60.1624314,16.6824977 60.1489646,27.8488767 60.1489646,27.849755 C60.1489646,28.0801556 60.3339877,28.2675208 60.562339,28.2675208 L65.5632327,28.2675208 C65.791584,28.2675208 65.974265,28.0801556 65.9748505,27.849755 L65.9748505,1.74246687 Z" id="Fill-4" fill="#FEFEFE"></path>
                <path d="M29.7243143,5.16808783 C29.7243143,3.37172419 28.2839445,1.91993683 26.5069029,1.91993683 C24.7316179,1.91993683 23.2903698,3.37172419 23.2903698,5.16808783 C23.2903698,6.96298767 24.7316179,8.41887365 26.5069029,8.41887365 C28.2839445,8.41887365 29.7243143,6.96298767 29.7243143,5.16808783" id="Fill-6" fill="#FEFEFE"></path>
                <path d="M29.36753,22.3424777 L29.36753,10.2913837 C29.36753,10.0624468 29.1830924,9.87537442 28.9547411,9.87537442 L23.9813667,9.87537442 C23.7530154,9.87537442 23.548963,10.1107519 23.548963,10.339396 L23.548963,27.6053898 C23.548963,28.1127396 23.8651418,28.2638028 24.2744176,28.2638028 L28.7553729,28.2638028 C29.2469137,28.2638028 29.36753,28.0219846 29.36753,27.5971926 L29.36753,22.3424777 Z" id="Fill-8" fill="#FEFEFE"></path>
                <path d="M84.9360894,9.91454545 L79.9852573,9.91454545 C79.758077,9.91454545 79.5733467,10.1019106 79.5733467,10.3323112 L79.5733467,23.1331587 C79.5733467,23.1331587 78.3153652,24.0535901 76.5301263,24.0535901 C74.7448875,24.0535901 74.2712049,23.2435285 74.2712049,21.4957627 L74.2712049,10.3323112 C74.2712049,10.1019106 74.0867673,9.91454545 73.8595871,9.91454545 L68.8346872,9.91454545 C68.6080924,9.91454545 68.4221911,10.1019106 68.4221911,10.3323112 L68.4221911,22.3406626 C68.4221911,27.53302 71.315812,28.8032974 75.2964438,28.8032974 C78.562453,28.8032974 81.1955193,26.9987365 81.1955193,26.9987365 C81.1955193,26.9987365 81.320527,27.9499076 81.3776148,28.0623267 C81.4341171,28.1747458 81.5819599,28.2886287 81.7418059,28.2886287 L84.9384314,28.2742835 C85.1650262,28.2742835 85.3509276,28.0869183 85.3509276,27.857396 L85.349171,10.3323112 C85.349171,10.1019106 85.1641479,9.91454545 84.9360894,9.91454545" id="Fill-10" fill="#FEFEFE"></path>
                <g id="Group-14" transform="translate(87.827427, 1.289834)">
                    <mask id="mask-6" fill="white">
                        <use xlink:href="#path-5"></use>
                    </mask>
                    <g id="Clip-13"></g>
                    <path d="M8.68777196,22.7480062 C6.970453,22.6956025 5.80556857,21.9162804 5.80556857,21.9162804 L5.80556857,13.648792 C5.80556857,13.648792 6.95464407,12.944416 8.36456703,12.81853 C10.1474638,12.6586841 11.8653683,13.197359 11.8653683,17.4502558 C11.8653683,21.9353097 11.0901448,22.8203174 8.68777196,22.7480062 M10.6404684,8.03837596 C7.82852696,8.03837596 5.91593837,9.29284438 5.91593837,9.29284438 L5.91593837,0.452721109 C5.91593837,0.222027735 5.73150077,0.0361263482 5.50432049,0.0361263482 L0.500791988,0.0361263482 C0.273318952,0.0361263482 0.0885885978,0.222027735 0.0885885978,0.452721109 L0.0885885978,26.5600092 C0.0885885978,26.7904099 0.273318952,26.9774823 0.501670262,26.9774823 L3.97290293,26.9774823 C4.12923575,26.9774823 4.24751002,26.8969738 4.33504468,26.7558644 C4.42140832,26.6156333 4.54583051,25.5520431 4.54583051,25.5520431 C4.54583051,25.5520431 6.59162404,27.49098 10.4645208,27.49098 C15.0116394,27.49098 17.6192357,25.1846317 17.6192357,17.1372974 C17.6192357,9.08996302 13.4544592,8.03837596 10.6404684,8.03837596" id="Fill-12" fill="#FEFEFE" mask="url(#mask-6)"></path>
                </g>
                <path d="M43.7068213,9.87309091 L39.9642018,9.87309091 C39.9642018,9.87309091 39.9586394,4.92987057 39.9586394,4.92869954 C39.9586394,4.74162712 39.862322,4.64794453 39.645681,4.64794453 L34.5458351,4.64794453 C34.3476379,4.64794453 34.241074,4.73518644 34.241074,4.92606471 L34.241074,10.0352789 C34.241074,10.0352789 31.6852958,10.6521202 31.5122758,10.7018891 C31.3404268,10.7519507 31.2136626,10.9106256 31.2136626,11.0997473 L31.2136626,14.310718 C31.2136626,14.5414114 31.3981002,14.7278983 31.6261587,14.7278983 L34.241074,14.7278983 L34.241074,22.4520277 C34.241074,28.1889153 38.2656194,28.7524746 40.9809507,28.7524746 C42.2216595,28.7524746 43.705943,28.3540308 43.9509815,28.2635686 C44.0991171,28.2091156 44.1854807,28.0554176 44.1854807,27.889131 L44.1892866,24.3572974 C44.1892866,24.1268968 43.9948952,23.9404099 43.7759122,23.9404099 C43.5578074,23.9404099 42.9998105,24.0294083 42.4254191,24.0294083 C40.5871911,24.0294083 39.9642018,23.1745547 39.9642018,22.0679291 C39.9642018,20.9624746 39.9639091,14.7278983 39.9639091,14.7278983 L43.7068213,14.7278983 C43.9348798,14.7278983 44.1199029,14.5414114 44.1199029,14.310718 L44.1199029,10.2891002 C44.1199029,10.0586995 43.9348798,9.87309091 43.7068213,9.87309091" id="Fill-15" fill="#FEFEFE"></path>
            </g>
        </g>
    </g>
</svg>